<?xml version="1.0" standalone="no"?>
<!DOCTYPE svg PUBLIC "-//W3C//DTD SVG 20010904//EN"
 "http://www.w3.org/TR/2001/REC-SVG-20010904/DTD/svg10.dtd">
<svg version="1.0" xmlns="http://www.w3.org/2000/svg"
 width="640.000000pt" height="640.000000pt" viewBox="0 0 640.000000 640.000000"
 preserveAspectRatio="xMidYMid meet">
<metadata>
Created by potrace 1.14, written by Peter Selinger 2001-2017
</metadata>
<g transform="translate(0.000000,640.000000) scale(0.100000,-0.100000)"
fill="#000000" stroke="none">
<path d="M0 5960 c0 -315 3 -440 11 -440 6 0 20 11 31 25 16 21 28 25 69 25
37 0 49 4 49 15 0 8 5 15 11 15 6 0 20 11 31 25 11 14 25 25 33 25 7 0 18 7
25 15 7 8 23 15 36 15 15 0 24 6 24 15 0 11 11 15 40 15 22 0 40 4 40 10 0 5
19 23 42 40 32 23 52 30 89 30 39 0 51 5 67 25 20 25 42 33 42 15 0 -20 19
-10 32 17 14 29 29 39 71 48 15 3 27 11 27 19 0 7 7 19 15 26 12 10 15 10 15
-4 0 -24 19 -20 42 9 11 14 25 25 33 25 7 0 18 7 25 15 7 8 28 15 47 15 26 0
41 7 55 25 11 14 24 25 30 25 5 0 27 14 48 30 28 22 48 30 79 30 37 0 41 2 41
25 0 20 5 25 24 25 13 0 29 7 36 15 8 9 30 15 56 15 24 0 44 5 44 10 0 15 77
12 83 -2 4 -9 14 -4 31 15 14 15 30 27 36 27 5 0 10 7 10 15 0 10 10 15 33 15
25 0 45 10 77 40 37 34 50 40 87 40 23 0 43 5 43 10 0 6 18 10 40 10 29 0 40
4 40 15 0 13 -109 15 -920 15 l-920 0 0 -440z"/>
<path d="M3252 4890 c-23 -16 -42 -32 -42 -34 0 -1 9 -13 20 -26 23 -27 26
-50 7 -50 -20 0 -50 -37 -44 -54 4 -9 -9 -24 -34 -42 -22 -15 -42 -38 -45 -50
-4 -13 -10 -24 -15 -24 -4 0 -21 -12 -36 -26 -37 -34 -124 -74 -162 -74 -17 0
-31 -4 -31 -10 0 -5 5 -10 10 -10 7 0 7 -6 0 -19 -5 -11 -10 -21 -10 -24 0 -8
75 3 78 13 2 5 14 7 26 4 30 -7 103 13 138 37 35 25 40 16 24 -44 -6 -19 -3
-34 7 -51 16 -23 17 -79 3 -143 -6 -26 -4 -32 13 -38 23 -7 27 -26 10 -57 -7
-13 -8 -23 -1 -27 6 -4 7 -25 1 -56 -4 -27 -8 -69 -8 -92 -1 -24 -5 -43 -11
-43 -5 0 -10 8 -10 18 0 21 -21 41 -65 62 -16 8 -42 25 -57 39 -22 20 -30 22
-42 12 -12 -11 -18 -10 -29 1 -14 13 -34 90 -44 163 -6 47 -19 66 -39 58 -16
-6 -90 35 -117 65 -17 19 -21 19 -52 7 -18 -8 -36 -11 -39 -7 -4 3 -11 0 -16
-8 -6 -10 -12 -11 -22 -2 -11 8 -20 8 -40 -2 -30 -16 -108 -16 -108 0 0 6 -16
27 -35 47 -30 31 -41 36 -77 35 -24 -1 -46 -7 -50 -12 -5 -7 -13 -4 -22 9 -16
22 -17 21 -33 -15 -11 -24 -12 -24 -12 -2 -1 27 -7 27 -49 2 -38 -23 -66 -19
-82 11 -6 10 -20 19 -30 19 -11 0 -29 5 -40 12 -15 10 -22 9 -38 -5 -10 -9
-24 -17 -30 -17 -16 0 -50 -47 -57 -80 -7 -30 -56 -80 -79 -80 -7 0 -28 -8
-47 -17 -67 -34 -163 -61 -196 -56 -46 8 -76 -3 -88 -29 -7 -15 -18 -22 -31
-21 -16 2 -24 -7 -34 -38 -13 -38 -54 -79 -79 -79 -20 0 -93 -67 -153 -142
-42 -52 -83 -69 -103 -42 -11 16 -13 16 -24 -4 -6 -12 -18 -22 -25 -22 -14 0
-31 -35 -41 -87 -8 -39 -28 -57 -54 -48 -14 4 -21 0 -26 -14 -5 -17 -14 -20
-44 -19 -26 1 -50 -7 -76 -25 -26 -18 -43 -23 -49 -17 -17 17 -37 11 -79 -25
-22 -19 -46 -35 -52 -35 -7 0 -20 -9 -30 -20 -10 -11 -26 -20 -35 -20 -18 0
-60 35 -60 50 0 5 -10 18 -21 29 -21 19 -22 19 -42 0 -11 -10 -24 -19 -27 -19
-14 0 -60 70 -60 91 0 6 -8 21 -18 33 -15 19 -20 20 -42 9 -36 -18 -48 -16
-56 10 -4 12 -11 25 -16 28 -6 4 -12 28 -15 55 -5 52 -28 112 -49 129 -7 6
-24 39 -39 75 -15 36 -31 69 -35 74 -5 5 -27 10 -49 11 l-41 2 2 -950 c3 -807
5 -951 17 -955 10 -3 12 0 8 12 -4 10 -1 16 9 16 10 0 13 7 8 25 -5 19 -2 25
10 25 9 0 16 5 16 10 0 6 -4 10 -9 10 -11 0 -25 39 -17 47 3 3 17 -4 32 -16
15 -11 34 -21 43 -21 10 0 21 -4 27 -9 5 -5 20 -12 34 -16 22 -7 23 -6 12 8
-17 20 -8 51 21 70 27 18 47 11 92 -32 31 -29 41 -33 70 -28 24 4 35 2 35 -6
0 -8 3 -7 9 2 6 9 18 11 40 6 19 -4 31 -3 31 4 0 16 99 1 150 -22 25 -12 54
-29 66 -39 12 -10 50 -23 85 -29 35 -6 72 -18 82 -27 13 -11 35 -17 67 -16 36
0 47 -3 43 -13 -3 -7 -9 -13 -15 -13 -5 0 -6 -4 -3 -10 3 -5 15 -10 26 -10 19
0 20 -4 14 -40 -6 -35 -4 -41 16 -48 16 -6 19 -11 10 -17 -11 -6 -10 -9 0 -16
11 -7 9 -10 -8 -15 -27 -7 -28 -12 -7 -42 8 -12 10 -22 5 -22 -17 0 -13 -27 4
-34 8 -3 15 -1 15 4 0 6 9 10 20 10 11 0 20 5 20 10 0 16 18 12 40 -10 11 -11
26 -17 34 -14 9 3 18 -5 25 -23 11 -27 11 -26 7 11 -6 46 3 96 16 96 6 0 8 -7
4 -15 -3 -8 2 -21 10 -30 17 -17 34 -20 34 -5 0 5 7 7 15 4 8 -4 15 -1 15 5 0
6 6 8 14 5 8 -3 17 0 21 5 3 6 11 9 16 6 9 -6 13 1 23 48 6 25 36 40 36 17 0
-18 22 -10 27 10 4 15 11 19 25 14 15 -4 19 -2 16 12 -2 13 5 20 27 25 17 4
24 7 18 8 -7 0 -13 5 -13 11 0 5 7 7 15 4 8 -4 15 -1 15 5 0 6 -5 11 -11 11
-8 0 -8 5 1 15 7 8 19 15 27 15 20 0 46 27 38 40 -3 5 -15 10 -27 10 -17 0
-18 3 -8 15 18 22 4 45 -27 45 -27 1 -27 1 -9 15 11 8 29 12 41 9 14 -4 30 3
48 22 27 27 28 27 62 11 19 -9 35 -22 34 -29 0 -10 -2 -10 -6 0 -5 13 -23 7
-23 -9 0 -13 32 -11 52 5 14 10 15 15 5 25 -9 10 -8 14 6 22 27 16 20 27 -19
27 -46 0 -60 13 -43 40 10 17 10 23 -4 37 -22 21 -22 41 0 49 12 5 14 9 5 18
-7 7 -12 22 -12 35 0 18 5 22 23 19 14 -2 21 -9 19 -20 -2 -9 2 -16 8 -16 5 0
10 7 10 16 0 12 7 14 30 9 26 -6 30 -4 30 14 0 11 5 23 10 26 6 3 10 15 10 26
0 10 -4 19 -10 19 -5 0 -10 -7 -10 -15 0 -24 -26 -17 -45 12 -17 26 -17 27 4
45 20 16 25 16 38 3 18 -19 20 -19 47 3 13 9 21 23 18 31 -3 8 0 11 5 8 5 -4
26 3 47 14 27 14 38 16 40 7 3 -7 10 -30 16 -50 6 -21 16 -38 22 -38 7 0 8
-19 4 -54 -5 -33 -3 -56 3 -60 13 -9 81 35 81 52 0 7 11 18 25 24 14 6 25 17
25 23 0 7 15 19 32 26 37 15 107 81 160 151 27 36 38 44 48 35 9 -9 11 -8 8 5
-1 9 2 17 7 18 21 4 65 42 65 56 0 8 11 19 25 24 14 5 28 17 31 25 4 8 11 15
18 15 6 0 19 9 29 20 10 12 22 18 27 15 5 -3 14 9 20 27 10 33 10 32 6 -9 -6
-60 11 -54 19 7 4 27 11 52 16 56 5 3 10 15 10 27 1 16 3 17 6 5 2 -10 10 -15
19 -11 19 7 11 -27 -26 -115 -24 -56 -28 -60 -36 -41 -15 33 -34 -45 -83 -336
-51 -304 -61 -368 -56 -373 2 -3 0 -10 -5 -17 -5 -6 -21 -72 -34 -146 -14 -74
-28 -150 -31 -169 -15 -78 -20 -221 -15 -425 4 -137 -5 -423 -12 -431 -4 -4
-26 10 -48 30 -45 40 -52 44 -43 19 4 -11 3 -14 -5 -9 -7 4 -17 26 -23 50 -9
36 -17 46 -52 63 -28 14 -46 31 -53 51 -12 31 -12 31 20 27 27 -4 25 -3 -9 9
-28 9 -39 18 -37 29 4 24 -15 56 -60 100 -21 21 -38 41 -38 46 0 4 -12 13 -27
20 -37 17 -40 8 -47 -128 -3 -64 -13 -145 -22 -181 -9 -36 -20 -117 -24 -180
-5 -63 -12 -128 -16 -145 -3 -16 -10 -66 -15 -110 -13 -122 -20 -146 -50 -189
-16 -21 -29 -46 -29 -55 0 -9 -7 -34 -14 -56 -20 -56 -39 -193 -41 -295 -1
-47 -6 -102 -10 -122 l-7 -38 1491 0 1491 0 -31 50 c-17 27 -30 60 -29 72 4
51 2 54 -37 50 -26 -2 -34 0 -25 6 12 8 11 15 -3 42 -15 29 -18 31 -34 16 -10
-9 -21 -13 -24 -10 -4 4 -9 -1 -13 -10 -8 -20 -24 -21 -24 -1 0 8 7 15 15 15
8 0 15 5 15 11 0 5 4 8 9 4 19 -11 23 17 5 30 -14 11 -16 17 -7 23 10 6 10 16
2 43 -6 18 -14 62 -19 97 -5 36 -16 72 -26 83 -9 10 -19 40 -21 66 -9 125 -12
160 -19 187 -4 18 -2 31 5 35 9 6 8 30 -3 104 -9 53 -16 115 -16 137 0 22 -11
66 -24 98 -29 69 -70 273 -61 301 7 24 -9 121 -35 208 -12 44 -27 70 -49 89
-17 14 -31 31 -31 38 0 6 -13 20 -30 29 -27 16 -30 16 -30 2 0 -8 11 -20 24
-24 20 -8 36 -29 36 -49 0 -3 -12 5 -26 19 l-26 24 4 -25 c2 -14 -2 -25 -9
-25 -23 0 -24 -13 -3 -53 22 -41 24 -76 5 -70 -5 2 -9 10 -8 18 1 10 -3 9 -14
-5 -11 -15 -13 -33 -8 -75 4 -30 7 -62 7 -70 1 -8 4 -20 9 -25 4 -6 7 -53 6
-106 l-2 -95 -25 23 c-13 12 -21 26 -16 30 4 4 11 1 16 -7 12 -19 12 -6 0 46
-5 22 -10 67 -11 100 -1 32 -8 74 -17 92 -18 40 -27 36 -12 -4 7 -17 7 -25 1
-19 -5 6 -13 22 -16 37 -6 22 -4 28 10 28 13 0 16 5 11 23 -4 12 -9 45 -13 72
-3 28 -11 53 -16 57 -7 4 -6 12 2 22 8 9 9 16 3 16 -6 0 -13 -6 -16 -12 -4 -9
-8 -10 -11 -2 -12 23 -34 49 -38 44 -3 -3 -7 -14 -9 -25 -2 -14 3 -20 15 -20
20 0 39 -24 30 -38 -3 -4 3 -17 12 -27 9 -10 15 -24 13 -31 -2 -6 -15 9 -28
35 -15 28 -32 46 -42 46 -10 0 -18 4 -18 8 0 5 -6 9 -12 10 -7 0 -33 5 -58 10
l-45 10 54 1 c51 1 53 2 49 26 -3 14 -1 25 3 25 5 0 9 11 9 25 0 14 -5 25 -11
25 -6 0 -9 -7 -5 -15 3 -9 0 -15 -8 -15 -15 0 -30 45 -21 60 7 11 -59 115
-100 157 -18 18 -37 51 -44 73 -7 23 -28 55 -51 77 -24 21 -40 45 -40 58 0 29
-20 45 -64 51 -36 4 -48 -10 -27 -32 6 -5 5 -21 -3 -39 l-13 -30 -12 24 c-12
21 -11 23 3 18 11 -5 16 -1 16 13 0 11 -7 20 -16 20 -8 0 -13 4 -9 10 11 18
-21 75 -44 77 -28 2 -79 42 -86 68 -4 12 -15 26 -26 33 -17 11 -19 9 -19 -9 0
-17 -3 -19 -14 -10 -11 9 -15 7 -19 -10 -8 -28 -27 -15 -27 19 -1 27 -23 66
-32 56 -3 -2 -8 2 -12 11 -3 9 -2 14 2 11 4 -2 9 5 9 17 2 16 0 18 -6 8 -7
-10 -15 -4 -34 25 -28 44 -28 50 3 34 19 -10 20 -10 11 7 -21 36 -40 55 -58
58 -10 1 -17 8 -15 14 1 6 -5 11 -13 11 -8 0 -15 5 -15 10 0 6 5 10 10 10 6 0
8 21 4 56 -7 54 -6 55 17 53 52 -5 59 -1 49 27 -10 26 -6 44 10 44 4 0 10 -22
12 -49 1 -27 0 -47 -4 -44 -14 8 -8 -18 11 -56 41 -78 79 -167 86 -197 6 -33
45 -79 45 -54 0 7 -7 22 -17 32 -9 10 -13 21 -9 25 9 9 26 -18 41 -62 7 -22
17 -31 37 -33 14 -2 32 -9 38 -17 6 -8 19 -11 28 -8 14 5 15 4 4 -8 -10 -11
-16 -11 -32 -1 -16 10 -20 10 -20 -1 0 -16 34 -50 42 -42 3 3 16 -7 29 -22 14
-16 32 -27 42 -25 25 5 21 19 -15 54 l-33 30 29 -6 c26 -6 28 -5 17 8 -8 9
-21 16 -29 16 -12 0 -13 3 -5 11 16 16 53 -10 59 -41 8 -42 29 -75 49 -78 11
-2 28 -14 37 -25 17 -21 18 -21 18 -2 0 16 2 17 9 5 6 -8 7 -18 5 -22 -3 -4 0
-8 6 -8 6 0 9 -4 6 -9 -3 -5 0 -11 8 -14 7 -3 16 -18 19 -34 7 -30 74 -109 84
-99 4 3 -8 21 -26 40 -21 22 -29 36 -21 41 6 4 8 15 5 26 -4 11 -2 19 5 19 6
0 13 -14 17 -31 3 -18 9 -26 13 -19 5 7 18 -5 36 -34 16 -25 35 -45 43 -46 8
0 12 -3 8 -6 -18 -18 92 -214 121 -214 15 0 16 27 0 32 -8 3 -7 11 5 28 9 14
17 20 17 15 1 -6 14 -26 31 -45 l30 -35 -6 30 c-5 22 -4 26 4 15 16 -23 19 -8
9 45 -5 28 -13 75 -17 105 -12 81 -74 250 -87 237 -4 -3 -13 1 -21 9 -20 20
-27 11 -13 -16 10 -18 9 -21 -2 -18 -7 3 -19 15 -25 29 l-13 24 0 -28 c0 -20
6 -30 20 -34 22 -6 53 -60 43 -75 -3 -6 -9 -4 -15 5 -5 9 -15 14 -22 11 -8 -3
-17 0 -22 7 -5 9 -2 10 9 6 24 -9 21 6 -3 21 -11 7 -20 23 -20 37 0 13 -8 29
-17 35 -13 8 -14 13 -5 16 6 3 12 17 12 30 0 22 4 25 28 22 21 -2 27 -8 26
-25 0 -13 2 -21 4 -18 3 3 11 0 19 -6 10 -9 13 -8 13 4 0 30 -33 122 -50 137
-9 9 -17 22 -18 30 0 8 -10 51 -21 96 -16 66 -27 88 -60 123 -23 24 -41 48
-41 53 0 5 -25 33 -55 63 -30 29 -55 58 -55 63 0 5 -7 12 -15 16 -10 4 -15 -1
-15 -15 0 -11 4 -18 9 -15 5 4 12 -7 16 -23 7 -35 29 -56 46 -45 8 4 9 3 5 -4
-8 -14 14 -58 49 -95 14 -15 23 -32 20 -37 -3 -6 -2 -10 3 -10 8 0 32 -42 32
-55 0 -14 -20 -2 -25 15 -11 33 -21 22 -17 -17 4 -37 3 -37 -13 -18 -16 20
-16 19 -9 -5 3 -14 10 -32 15 -40 7 -12 9 -11 9 5 l1 20 9 -20 c5 -11 9 -27 9
-37 1 -14 -3 -14 -24 -5 -14 7 -25 17 -25 23 0 6 -7 18 -16 25 -15 12 -16 11
-10 -9 8 -24 -3 -29 -24 -10 -7 7 -2 -2 13 -20 27 -34 34 -52 19 -52 -26 0
-84 103 -86 152 -1 15 -7 28 -14 28 -7 0 -17 12 -23 28 -6 15 -20 43 -30 63
-11 20 -19 43 -19 52 0 8 -7 20 -15 27 -12 10 -15 9 -15 -6 0 -34 21 -98 39
-119 25 -29 56 -93 49 -100 -3 -4 -20 9 -37 27 -33 35 -42 28 -15 -10 26 -38
5 -40 -27 -3 -16 19 -34 52 -39 75 -6 22 -16 52 -23 65 -6 13 -10 37 -9 55 2
29 2 30 -12 12 -19 -24 -38 -12 -30 20 6 25 -10 35 -19 12 -3 -7 -6 -2 -6 11
-1 13 -19 50 -42 83 -30 44 -36 58 -22 54 32 -10 44 6 31 42 -7 18 -16 32 -20
32 -4 0 -12 18 -18 40 -6 21 -17 46 -25 54 -8 8 -15 19 -15 25 0 6 -4 11 -9
11 -6 0 -6 -12 1 -31 15 -42 2 -49 -27 -14 -18 22 -24 26 -25 13 0 -9 12 -26
27 -38 20 -15 24 -23 15 -29 -7 -4 -12 -12 -11 -17 1 -5 0 -13 -1 -19 -1 -5
-1 -35 0 -66 2 -62 -14 -86 -30 -45 -12 31 -45 36 -37 6 3 -11 2 -22 -3 -25
-7 -4 -15 28 -29 132 -5 39 -4 54 6 57 9 4 10 12 3 31 -9 23 -6 29 13 26 4 0
7 6 7 15 0 8 -5 12 -10 9 -6 -3 -19 -4 -29 0 -14 4 -18 14 -16 38 1 18 -1 37
-4 42 -3 6 -6 12 -7 15 -6 31 -17 68 -25 82 -20 39 -10 39 81 1 29 -12 39 -8
22 9 -23 23 -12 29 19 11 17 -10 38 -34 47 -53 14 -31 16 -33 19 -13 4 23 -26
69 -97 147 -23 25 -29 37 -17 32 10 -3 22 -6 26 -6 5 0 21 -19 36 -42 25 -37
29 -40 40 -25 8 11 12 44 10 88 -1 66 -1 70 14 51 23 -27 48 -34 56 -14 4 10
-5 26 -25 45 -34 32 -41 25 -8 -10 28 -30 15 -43 -15 -15 -12 11 -26 22 -32
23 -33 6 -57 22 -65 44 -13 34 -13 35 5 35 8 0 15 -8 15 -18 0 -21 30 -52 49
-52 8 0 9 5 1 19 -15 29 -13 71 5 71 8 0 12 -6 9 -13 -5 -14 22 -43 59 -62 12
-6 21 -17 19 -24 -1 -7 7 -27 18 -46 11 -18 20 -45 20 -60 0 -25 -2 -26 -17
-14 -15 12 -16 12 -8 -6 4 -11 8 -28 9 -37 0 -13 4 -14 13 -6 10 8 13 6 13 -5
0 -27 33 -87 47 -87 7 0 13 -9 13 -20 0 -13 7 -20 20 -20 18 0 17 2 -5 26 -14
15 -22 30 -19 35 3 5 0 9 -6 9 -6 0 -8 5 -5 10 3 6 1 10 -5 10 -7 0 -9 7 -6
16 4 9 2 22 -3 28 -4 6 -12 33 -16 61 -9 64 -46 135 -82 159 -16 10 -34 29
-40 42 -10 21 -9 24 9 24 20 0 20 1 5 18 -10 11 -13 22 -8 28 13 13 42 157 47
233 2 36 8 67 12 70 10 7 -9 190 -21 209 -8 11 -2 16 16 13 14 -2 7 16 -10 25
-15 8 -17 19 -12 74 3 36 6 54 7 40 3 -29 22 -66 22 -40 0 8 -5 35 -11 59 -5
25 -6 48 -1 53 5 5 38 2 76 -7 65 -15 74 -15 175 5 67 13 110 26 118 37 17 22
7 34 -23 27 -20 -5 -23 -3 -18 11 7 16 5 16 -27 0 -26 -14 -49 -16 -112 -12
-44 3 -84 10 -90 16 -6 6 -19 11 -29 11 -10 0 -21 7 -24 15 -4 8 -12 15 -19
15 -7 0 -28 8 -45 18 -30 16 -31 19 -27 73 4 48 1 61 -22 95 -15 21 -36 40
-47 42 -11 2 -39 -11 -62 -28z m-75 -542 c-3 -8 -6 -5 -6 6 -1 11 2 17 5 13 3
-3 4 -12 1 -19z m-1016 -90 c11 -21 11 -22 -4 -9 -10 7 -17 17 -17 22 0 15 9
10 21 -13z m1149 -43 c0 -14 7 -36 15 -49 22 -33 20 -107 -4 -216 -12 -52 -24
-105 -26 -117 -3 -14 -15 -24 -36 -28 -36 -8 -47 -1 -30 19 6 8 14 59 16 117
5 123 11 164 33 242 17 60 32 75 32 32z m-373 -167 c-3 -7 -5 -2 -5 12 0 14 2
19 5 13 2 -7 2 -19 0 -25z m-1017 -39 c0 -11 -4 -18 -10 -14 -5 3 -7 12 -3 20
7 21 13 19 13 -6z m415 -19 c3 -5 1 -10 -4 -10 -6 0 -11 5 -11 10 0 6 2 10 4
10 3 0 8 -4 11 -10z m80 -63 c11 -8 15 -19 10 -26 -5 -9 -12 -7 -26 8 -30 32
-20 44 16 18z m-595 -61 c0 -3 -4 -8 -10 -11 -5 -3 -10 -1 -10 4 0 6 5 11 10
11 6 0 10 -2 10 -4z m467 -158 c-3 -7 -5 -2 -5 12 0 14 2 19 5 13 2 -7 2 -19
0 -25z m628 -85 c0 -6 3 -15 8 -19 4 -4 7 -12 7 -17 0 -6 -9 0 -20 13 -23 26
-26 44 -7 38 6 -3 12 -10 12 -15z m-2705 -53 c0 -17 59 -48 106 -55 24 -3 46
-10 49 -16 4 -5 35 -9 71 -9 49 0 64 -3 64 -14 0 -8 -10 -18 -21 -21 -17 -6
-19 -9 -8 -16 8 -5 26 -9 42 -9 15 0 27 -4 27 -10 0 -14 -46 -25 -101 -24 -35
0 -46 -3 -42 -13 7 -19 -61 -17 -77 2 -7 8 -20 30 -29 48 -11 22 -24 33 -42
35 -27 3 -43 24 -58 80 -8 25 -7 32 5 32 8 0 14 -5 14 -10z m2702 -33 c24 -24
25 -28 10 -36 -9 -4 -33 -11 -53 -15 -41 -7 -74 -38 -84 -78 -4 -16 -11 -28
-15 -28 -7 0 -22 26 -24 42 -3 22 -18 15 -32 -16 -10 -20 -20 -36 -23 -36 -4
0 -29 24 -56 52 -28 29 -53 52 -56 51 -3 -1 -6 16 -7 38 -1 24 2 38 8 34 6 -3
10 -14 10 -23 0 -16 67 -92 81 -92 4 0 10 15 13 33 6 34 24 42 54 23 7 -4 12
-2 12 4 0 6 10 8 23 5 15 -4 32 1 48 14 22 19 23 22 7 31 -30 18 -20 31 20 27
24 -2 47 -13 64 -30z m88 -7 c0 -5 -4 -10 -10 -10 -5 0 -10 5 -10 10 0 6 5 10
10 10 6 0 10 -4 10 -10z m-1090 -10 c0 -5 -7 -10 -15 -10 -8 0 -15 5 -15 10 0
6 7 10 15 10 8 0 15 -4 15 -10z m757 -21 c1 -14 0 -17 -3 -6 -3 9 -10 17 -15
17 -5 0 -9 5 -9 11 0 22 25 2 27 -22z m-752 -41 c4 -13 7 -27 6 -31 -3 -20 20
-46 36 -40 11 4 14 2 11 -8 -3 -8 -11 -13 -17 -11 -6 1 -11 -3 -11 -9 0 -6 -6
-9 -14 -6 -7 3 -18 1 -24 -5 -17 -17 -36 56 -21 83 10 19 9 21 -5 16 -9 -4
-16 -2 -16 4 0 6 -7 9 -15 6 -8 -4 -17 -2 -20 3 -7 11 12 18 51 19 24 1 33 -4
39 -21z m235 -32 c0 -11 -19 -15 -25 -6 -3 5 1 10 9 10 9 0 16 -2 16 -4z
m-335 -26 c3 -5 -1 -10 -9 -10 -9 0 -16 5 -16 10 0 6 4 10 9 10 6 0 13 -4 16
-10z m59 -71 c-9 -15 -24 -10 -18 5 3 8 1 17 -5 21 -6 3 -11 11 -11 17 0 6 9
1 20 -12 11 -12 17 -27 14 -31z m-121 34 c-7 -2 -19 -2 -25 0 -7 3 -2 5 12 5
14 0 19 -2 13 -5z m70 -42 c6 -25 -9 -40 -34 -34 -22 6 -26 23 -4 23 8 0 15 7
15 15 0 22 17 18 23 -4z m-59 -5 c-3 -8 -12 -12 -20 -9 -21 8 -17 23 6 23 13
0 18 -5 14 -14z m161 -5 c-3 -6 -11 -11 -17 -11 -6 0 -6 6 2 15 14 17 26 13
15 -4z m-270 -1 c3 -5 -1 -10 -10 -10 -9 0 -13 5 -10 10 3 6 8 10 10 10 2 0 7
-4 10 -10z m45 -15 c-7 -8 -20 -15 -28 -15 -13 0 -12 3 4 15 25 19 40 19 24 0z
m188 -24 c-9 -15 -15 -17 -26 -9 -10 9 -11 13 0 19 7 5 19 9 26 9 10 0 10 -4
0 -19z m-1613 -11 c3 -5 -1 -10 -9 -10 -9 0 -16 -5 -16 -12 0 -9 -3 -9 -12 0
-10 10 -10 15 2 22 19 12 27 12 35 0z m2257 -60 c5 0 8 8 8 17 0 9 2 14 5 11
7 -7 -5 -58 -14 -58 -18 1 -29 20 -35 60 l-6 45 17 -37 c10 -21 21 -38 25 -38z
m-1011 28 c-36 -28 -57 -22 -25 7 14 13 31 22 37 18 6 -4 1 -14 -12 -25z m187
20 c-6 -18 -28 -21 -28 -4 0 9 7 16 16 16 9 0 14 -5 12 -12z m136 -3 c-5 -11
1 -15 20 -15 16 0 26 -6 26 -15 0 -18 -17 -20 -23 -2 -4 9 -7 9 -17 0 -11 -10
-10 -14 3 -19 28 -10 19 -23 -19 -30 -40 -7 -81 -40 -61 -47 9 -3 9 -9 1 -23
-13 -23 -25 -26 -44 -13 -11 8 -12 12 -2 16 19 7 14 26 -5 19 -11 -5 -23 1
-35 16 l-17 23 6 -22 c3 -14 1 -23 -6 -23 -7 0 -9 5 -5 11 4 7 -1 10 -12 7
-23 -4 -26 -33 -4 -34 8 -1 25 -2 38 -2 12 -1 22 -6 22 -12 0 -9 -57 -6 -67 4
-3 2 -16 1 -28 -4 -15 -6 -25 -5 -27 1 -3 9 -38 -2 -103 -31 -32 -14 -98 -30
-128 -30 -15 0 -35 -4 -45 -9 -9 -5 -44 -22 -77 -37 -33 -15 -68 -35 -78 -43
-21 -17 -30 -12 -14 9 11 14 75 48 179 94 41 18 62 21 53 6 -3 -5 -1 -10 5
-10 7 0 9 8 5 20 -5 14 -2 20 9 20 9 0 16 -4 16 -10 0 -5 9 -10 20 -10 25 0
26 17 3 23 -16 4 -16 6 2 11 11 4 26 19 32 33 11 22 10 28 -5 39 -15 12 -14
13 15 14 25 0 31 4 27 15 -4 10 0 15 11 15 12 0 15 -5 10 -21 -4 -12 -3 -20 1
-17 50 23 70 34 75 41 3 4 16 4 28 -1 18 -6 20 -10 9 -19 -7 -6 -22 -13 -33
-15 -25 -4 -31 -40 -10 -58 12 -10 15 -10 15 1 0 8 16 24 35 37 34 21 46 47
25 54 -5 2 10 4 34 5 33 1 43 -2 40 -11 -6 -16 20 -28 42 -19 13 5 13 7 2 14
-9 6 -8 9 7 9 14 0 25 10 32 30 6 17 14 30 17 30 3 0 3 -7 0 -15z m-264 -25
c0 -5 -4 -10 -10 -10 -5 0 -10 5 -10 10 0 6 5 10 10 10 6 0 10 -4 10 -10z
m230 -6 c0 -2 -9 -4 -21 -4 -11 0 -18 4 -14 10 5 8 35 3 35 -6z m-1515 -35
c-4 -10 -2 -19 3 -19 19 0 19 -37 1 -49 -17 -10 -19 -8 -19 15 0 14 -4 23 -10
19 -5 -3 -10 3 -10 15 0 12 5 18 10 15 6 -3 10 3 10 15 0 12 4 18 10 15 6 -4
8 -15 5 -26z m-85 -17 c-15 -5 -41 18 -34 30 3 5 15 1 26 -9 11 -10 15 -19 8
-21z m2453 -23 c-6 -6 -10 1 -10 23 0 30 1 30 10 10 7 -15 7 -26 0 -33z
m-1223 17 c0 -3 -17 -10 -37 -17 -21 -7 -45 -19 -53 -28 -8 -9 -32 -25 -52
-36 -21 -11 -37 -26 -35 -34 1 -8 -4 -16 -10 -18 -22 -8 -14 17 15 44 15 14
26 30 24 35 -1 5 6 8 15 6 12 -2 18 3 16 15 0 12 4 16 13 13 7 -3 26 1 41 9
26 14 63 20 63 11z m1160 -11 c0 -8 -4 -15 -10 -15 -5 0 -10 7 -10 15 0 8 5
15 10 15 6 0 10 -7 10 -15z m-2400 -15 c0 -5 -2 -10 -4 -10 -3 0 -8 5 -11 10
-3 6 -1 10 4 10 6 0 11 -4 11 -10z m2960 -20 c0 -5 -2 -10 -4 -10 -3 0 -8 5
-11 10 -3 6 -1 10 4 10 6 0 11 -4 11 -10z m-899 -53 c-16 -16 -26 0 -10 19 9
11 15 12 17 4 2 -6 -1 -17 -7 -23z m-1944 -6 c14 -23 5 -35 -14 -20 -14 12
-18 39 -5 39 4 0 13 -9 19 -19z m923 15 c0 -3 -4 -8 -10 -11 -5 -3 -10 -1 -10
4 0 6 5 11 10 11 6 0 10 -2 10 -4z m509 -37 c7 -16 11 -33 7 -36 -3 -3 -8 2
-12 11 -3 9 -15 16 -25 16 -22 0 -24 11 -7 28 17 17 22 15 37 -19z m-31 -36
c4 -7 18 -14 30 -16 12 -2 28 -9 34 -15 7 -7 18 -12 26 -12 11 0 13 -8 7 -32
-9 -39 -9 -111 0 -153 5 -24 2 -35 -19 -54 -38 -36 -41 -29 -33 79 4 54 0 70
-19 70 -8 0 -14 10 -14 24 0 22 -3 23 -52 18 -29 -2 -60 -11 -69 -18 -8 -8
-20 -14 -27 -14 -6 0 -24 -13 -40 -30 -17 -16 -36 -30 -42 -30 -6 0 -30 -9
-54 -20 -82 -37 -233 -46 -263 -16 -12 12 4 15 33 7 17 -5 48 -5 70 -1 21 4
35 8 29 9 -5 1 -3 5 5 11 9 5 17 5 20 0 3 -5 17 -6 30 -3 22 6 23 7 4 14 -18
7 -17 8 4 8 22 1 62 33 62 50 0 9 -38 5 -92 -11 -21 -6 -38 -17 -38 -25 0 -8
-5 -11 -10 -8 -19 12 34 63 78 75 34 10 48 10 66 0 18 -9 28 -9 46 0 13 7 36
9 56 6 26 -5 36 -3 45 12 7 12 19 17 31 14 10 -2 18 1 18 7 0 6 -4 11 -9 11
-5 0 -11 7 -15 15 -4 12 0 14 19 9 32 -8 50 3 35 21 -9 11 -6 14 15 12 14 -1
29 -8 33 -14z m-321 -9 c-3 -3 -12 -4 -19 -1 -8 3 -5 6 6 6 11 1 17 -2 13 -5z
m98 -15 c11 -17 -1 -21 -15 -4 -8 9 -8 15 -2 15 6 0 14 -5 17 -11z m-20 -49
c3 -5 1 -10 -4 -10 -6 0 -11 5 -11 10 0 6 2 10 4 10 3 0 8 -4 11 -10z m1733
-24 c17 -33 11 -41 -17 -26 -13 6 -21 21 -21 36 0 33 20 27 38 -10z m-1908 -6
c0 -5 -11 -10 -25 -10 -14 0 -25 5 -25 10 0 6 11 10 25 10 14 0 25 -4 25 -10z
m1277 -42 c-3 -7 -5 -2 -5 12 0 14 2 19 5 13 2 -7 2 -19 0 -25z m-932 2 c3 -5
1 -10 -4 -10 -6 0 -11 5 -11 10 0 6 2 10 4 10 3 0 8 -4 11 -10z m2180 -10 c3
-5 1 -10 -4 -10 -6 0 -11 5 -11 10 0 6 2 10 4 10 3 0 8 -4 11 -10z m-2216 -39
c9 -6 10 -11 2 -15 -15 -10 -53 3 -46 15 8 11 26 11 44 0z m1531 -42 c0 -6 -4
-7 -10 -4 -5 3 -10 11 -10 16 0 6 5 7 10 4 6 -3 10 -11 10 -16z m-1660 -19 c0
-5 -5 -10 -11 -10 -5 0 -7 5 -4 10 3 6 8 10 11 10 2 0 4 -4 4 -10z m1049 -126
c-12 -70 -25 -122 -27 -115 -5 15 39 253 46 247 2 -3 -6 -62 -19 -132z m-989
100 c0 -8 -8 -14 -18 -14 -25 0 -34 11 -21 26 13 15 39 7 39 -12z m208 -12 c2
-7 -3 -12 -12 -12 -9 0 -16 7 -16 16 0 17 22 14 28 -4z m-714 -34 c8 -33 8
-35 -10 -42 -15 -6 -15 -4 -3 10 11 13 11 18 2 21 -15 5 -18 33 -4 33 5 0 11
-10 15 -22z m2160 -27 c26 -29 15 -46 -12 -21 -22 21 -29 40 -14 40 5 0 17 -9
26 -19z m326 4 c0 -17 -2 -18 -25 -9 -13 5 -14 8 -3 15 19 13 28 11 28 -6z
m-2435 -5 c-3 -5 -11 -10 -16 -10 -6 0 -7 5 -4 10 3 6 11 10 16 10 6 0 7 -4 4
-10z m39 -15 c-4 -8 -8 -15 -10 -15 -2 0 -4 7 -4 15 0 8 4 15 10 15 5 0 7 -7
4 -15z m41 -5 c3 -5 1 -10 -4 -10 -6 0 -11 5 -11 10 0 6 2 10 4 10 3 0 8 -4
11 -10z m380 0 c3 -5 1 -10 -4 -10 -6 0 -11 5 -11 10 0 6 2 10 4 10 3 0 8 -4
11 -10z m-474 -20 c10 0 19 -5 19 -11 0 -7 -10 -9 -27 -4 -35 8 -37 11 -27 26
6 10 9 10 12 1 2 -7 12 -12 23 -12z m62 -19 c-6 -3 -13 -13 -16 -21 -4 -11 -6
-9 -6 6 -1 24 8 36 21 27 7 -3 7 -8 1 -12z m503 -18 c-11 -11 -17 4 -9 23 7
18 8 18 11 1 2 -10 1 -21 -2 -24z m2308 11 c3 -9 6 -22 6 -31 0 -13 -2 -13
-15 1 -16 16 -20 46 -6 46 5 0 12 -7 15 -16z m-2667 -20 c0 -9 -8 -9 -29 -2
-35 13 -35 15 0 14 16 -1 29 -6 29 -12z m-51 -11 c29 -12 34 -18 21 -21 -10
-2 -26 3 -35 11 -9 8 -24 17 -32 20 -8 3 -10 6 -4 6 6 1 29 -7 50 -16z m2446
-10 c10 -9 18 -23 18 -31 0 -12 -6 -10 -25 8 -38 35 -31 58 7 23z m166 -19
c-10 -10 -28 6 -28 24 0 15 1 15 17 -1 9 -9 14 -19 11 -23z m-2481 0 c-3 -3
-12 -4 -19 -1 -8 3 -5 6 6 6 11 1 17 -2 13 -5z m-187 -14 c0 -5 -2 -10 -4 -10
-3 0 -8 5 -11 10 -3 6 -1 10 4 10 6 0 11 -4 11 -10z m2790 -12 c0 -19 -2 -20
-10 -8 -13 19 -13 30 0 30 6 0 10 -10 10 -22z m-2703 6 c-3 -3 -12 -4 -19 -1
-8 3 -5 6 6 6 11 1 17 -2 13 -5z m58 -4 c-3 -5 -10 -10 -16 -10 -5 0 -9 5 -9
10 0 6 7 10 16 10 8 0 12 -4 9 -10z m20 -20 c-3 -5 -10 -10 -16 -10 -5 0 -9 5
-9 10 0 6 7 10 16 10 8 0 12 -4 9 -10z m-201 -58 c5 -33 3 -43 -6 -40 -8 3
-14 24 -15 53 -3 58 12 48 21 -13z m2557 26 c14 -27 -3 -45 -21 -22 -8 9 -15
24 -17 35 -4 24 23 15 38 -13z m60 -5 c6 -16 15 -36 20 -45 12 -23 11 -31 -1
-23 -10 6 -50 78 -50 90 0 16 22 1 31 -22z m-2372 2 c29 -14 47 -43 35 -54 -4
-3 -9 0 -11 7 -3 6 -10 12 -16 12 -13 0 -47 30 -47 42 0 11 7 10 39 -7z m1108
-7 c-3 -8 -6 -5 -6 6 -1 11 2 17 5 13 3 -3 4 -12 1 -19z m-907 2 c0 -5 -4 -10
-10 -10 -5 0 -10 5 -10 10 0 6 5 10 10 10 6 0 10 -4 10 -10z m1334 -5 c-4 -8
-8 -15 -10 -15 -2 0 -4 7 -4 15 0 8 4 15 10 15 5 0 7 -7 4 -15z m636 -5 c0 -5
-4 -10 -10 -10 -5 0 -10 5 -10 10 0 6 5 10 10 10 6 0 10 -4 10 -10z m-1946
-25 c-4 -8 -1 -15 5 -15 6 0 11 -6 11 -14 0 -10 -10 -14 -32 -13 -49 3 -40 30
19 56 1 1 0 -6 -3 -14z m-410 -54 c-8 -9 -34 23 -34 43 0 18 2 17 19 -9 10
-16 17 -32 15 -34z m2651 39 c3 -5 -1 -10 -9 -10 -9 0 -16 5 -16 10 0 6 4 10
9 10 6 0 13 -4 16 -10z m55 -42 c0 -15 -19 -8 -29 11 -14 25 0 37 16 15 7 -10
13 -21 13 -26z m-2390 17 c0 -15 -38 -41 -47 -32 -6 6 28 47 39 47 5 0 8 -7 8
-15z m-440 -16 c0 -4 -7 -6 -15 -3 -8 4 -15 10 -15 15 0 4 7 6 15 3 8 -4 15
-10 15 -15z m300 -5 c0 -8 -4 -12 -10 -9 -5 3 -10 10 -10 16 0 5 5 9 10 9 6 0
10 -7 10 -16z m1926 -15 c16 -32 12 -85 -6 -74 -13 8 -32 83 -25 95 9 15 13
13 31 -21z m514 -18 c-1 -13 -4 -12 -15 3 -8 11 -15 27 -15 35 1 13 4 12 15
-3 8 -11 15 -27 15 -35z m-2425 1 c20 -13 15 -54 -6 -59 -11 -3 -18 -11 -15
-17 17 -40 32 -66 41 -69 11 -5 -11 -2 -35 4 -10 3 -14 -3 -13 -18 3 -28 -17
-30 -24 -3 -3 11 -14 20 -24 20 -11 0 -22 8 -25 18 -3 9 -10 25 -15 35 -7 13
-6 23 2 33 15 18 39 18 39 -1 0 -8 4 -15 9 -15 15 0 23 18 11 25 -19 12 -11
43 13 48 12 2 24 5 27 5 3 1 10 -2 15 -6z m-151 -57 c5 -19 4 -26 -2 -20 -6 6
-13 26 -16 45 -8 42 8 21 18 -25z m2004 26 c3 -8 -1 -12 -9 -9 -7 2 -15 10
-17 17 -3 8 1 12 9 9 7 -2 15 -10 17 -17z m-1791 -13 c-3 -8 -6 -5 -6 6 -1 11
2 17 5 13 3 -3 4 -12 1 -19z m2091 -37 c9 -5 13 -13 9 -17 -8 -8 -57 34 -57
48 0 5 7 2 15 -6 9 -9 24 -20 33 -25z m-282 14 c11 -27 -2 -37 -14 -11 -7 16
-8 26 -1 26 5 0 12 -7 15 -15z m382 -28 c11 -24 31 -55 46 -70 14 -14 26 -35
26 -46 0 -11 6 -22 13 -24 6 -3 0 -6 -15 -6 -15 -1 -30 3 -33 9 -3 6 1 7 9 4
9 -3 16 -3 16 0 0 14 -31 66 -39 66 -10 0 -51 79 -51 98 0 22 9 12 28 -31z
m-2588 17 c0 -17 -22 -14 -28 4 -2 7 3 12 12 12 9 0 16 -7 16 -16z m470 -10
c0 -8 -7 -14 -15 -14 -20 0 -19 -17 2 -29 25 -13 11 -23 -21 -15 -28 7 -32 20
-15 57 12 26 49 27 49 1z m2503 -4 c3 -11 1 -20 -4 -20 -5 0 -9 9 -9 20 0 11
2 20 4 20 2 0 6 -9 9 -20z m-2576 -12 c-3 -8 -6 -5 -6 6 -1 11 2 17 5 13 3 -3
4 -12 1 -19z m1782 -4 c27 -22 31 -32 31 -74 0 -27 5 -52 10 -55 6 -3 10 -13
10 -21 0 -10 -6 -8 -24 7 -19 16 -24 28 -20 49 6 29 -19 100 -35 100 -6 0 -11
-6 -11 -12 0 -9 -3 -8 -9 2 -10 15 -6 30 9 30 5 0 22 -12 39 -26z m345 -36
c26 -50 20 -70 -14 -48 -13 8 -12 10 3 10 17 0 17 2 3 22 -15 21 -21 48 -12
48 3 0 12 -14 20 -32z m460 -29 c-11 -18 -21 1 -16 28 5 27 5 27 14 4 4 -13 5
-27 2 -32z m-2574 5 c0 -16 -5 -24 -12 -21 -7 2 -18 -3 -24 -11 -6 -8 -16 -12
-22 -8 -16 10 -15 26 1 26 8 0 20 11 27 25 16 29 30 24 30 -11z m2285 26 c3
-5 1 -10 -4 -10 -6 0 -11 5 -11 10 0 6 2 10 4 10 3 0 8 -4 11 -10z m-579 -27
c-10 -10 -19 5 -10 18 6 11 8 11 12 0 2 -7 1 -15 -2 -18z m361 3 c-3 -7 1 -23
9 -34 11 -16 11 -21 1 -25 -7 -4 -3 -8 11 -13 17 -5 20 -10 12 -19 -14 -17
-50 -7 -50 14 0 10 -6 26 -14 37 -13 17 -12 21 1 37 19 20 37 23 30 3z m-382
-38 c4 -16 5 -28 2 -28 -9 0 -35 58 -29 65 9 8 20 -7 27 -37z m503 24 c2 -7
-2 -10 -12 -6 -9 3 -16 11 -16 16 0 13 23 5 28 -10z m-430 -26 c3 -14 0 -17
-12 -13 -9 4 -16 2 -16 -3 0 -6 8 -10 19 -10 10 0 26 -11 35 -25 20 -30 14
-31 -30 -4 -56 34 -72 79 -27 76 18 -2 29 -9 31 -21z m757 14 c3 -5 2 -10 -4
-10 -5 0 -13 5 -16 10 -3 6 -2 10 4 10 5 0 13 -4 16 -10z m-855 -24 c0 -3 -4
-8 -10 -11 -5 -3 -10 -1 -10 4 0 6 5 11 10 11 6 0 10 -2 10 -4z m-1849 -62
c13 -21 18 -39 12 -43 -5 -3 -12 -14 -16 -23 -8 -23 -37 -12 -37 14 0 14 -5
18 -15 14 -9 -3 -15 0 -15 9 0 8 6 12 14 9 9 -3 15 5 19 25 4 17 8 31 11 31 2
0 14 -16 27 -36z m1876 7 c0 -26 -2 -28 -19 -18 -10 7 -18 15 -18 20 0 4 5 5
10 2 6 -3 10 1 10 9 0 9 4 16 8 16 5 0 9 -13 9 -29z m644 19 c5 0 9 -4 9 -10
0 -14 -13 -12 -36 6 -17 14 -17 15 -1 10 10 -3 23 -6 28 -6z m259 -11 c0 -11
-4 -17 -10 -14 -5 3 -10 13 -10 21 0 8 5 14 10 14 6 0 10 -9 10 -21z m-322
-20 c11 -18 11 -20 -3 -17 -9 1 -15 7 -15 12 1 5 -4 13 -12 17 -10 7 -10 9 2
9 8 0 21 -9 28 -21z m-423 1 c3 -5 1 -10 -4 -10 -6 0 -11 5 -11 10 0 6 2 10 4
10 3 0 8 -4 11 -10z m259 -12 c6 -26 -12 -33 -35 -12 -25 23 -24 29 5 29 15 0
27 -7 30 -17z m264 0 c14 -14 16 -58 3 -58 -13 0 -19 11 -25 43 -5 29 3 34 22
15z m-594 -37 c-9 -10 -26 18 -18 30 5 9 9 8 14 -7 4 -10 6 -21 4 -23z m-105
15 c17 -21 25 -80 13 -102 -12 -23 10 -75 23 -55 5 9 12 6 23 -10 11 -16 12
-24 4 -27 -6 -2 -8 -10 -5 -18 3 -8 0 -14 -6 -14 -6 0 -11 -6 -11 -14 0 -9 10
-13 29 -12 17 1 27 -2 24 -7 -3 -4 -2 -23 1 -40 5 -25 14 -36 37 -44 24 -10
29 -16 24 -32 -7 -24 9 -59 39 -83 27 -22 58 -24 50 -3 -4 8 -2 15 4 15 6 0
15 -21 21 -48 5 -26 13 -56 17 -67 6 -18 5 -17 -14 3 -11 13 -28 33 -37 45 -9
12 -13 16 -10 10 4 -9 -2 -13 -17 -14 -13 0 -17 -3 -10 -6 15 -6 16 -43 1 -43
-8 0 -8 -4 1 -15 6 -8 10 -20 7 -27 -3 -8 -9 -2 -16 15 -6 15 -18 27 -28 27
-17 1 -17 1 0 11 17 10 24 30 10 28 -23 -4 -34 3 -31 19 2 10 -8 26 -29 40
-19 13 -33 31 -33 43 0 23 -18 61 -34 71 -6 4 3 8 19 8 26 1 28 2 14 13 -9 7
-23 26 -32 42 -9 17 -16 24 -17 18 0 -28 -19 -11 -22 20 -2 24 -7 31 -20 29
-21 -3 -21 -6 -9 36 7 21 6 43 -1 63 -11 33 -3 53 12 29 9 -13 10 -13 10 0 0
8 -9 21 -21 28 -12 7 -18 16 -15 19 3 4 1 12 -5 20 -9 9 -8 13 0 13 6 0 11 7
11 15 0 19 14 19 29 1z m149 -15 c3 -8 -1 -12 -9 -9 -7 2 -15 10 -17 17 -3 8
1 12 9 9 7 -2 15 -10 17 -17z m19 -32 c-1 -51 -1 -51 -19 -29 -22 27 -23 40
-3 40 8 0 15 9 15 20 0 11 2 20 4 20 2 0 3 -23 3 -51z m271 -19 c7 0 12 -9 12
-19 0 -11 3 -27 7 -37 6 -16 4 -16 -20 2 -16 12 -24 25 -21 36 3 9 0 19 -6 23
-5 3 -15 16 -20 28 -9 17 -6 16 12 -5 13 -16 29 -28 36 -28z m-270 -63 c2 -10
-3 -17 -11 -17 -16 0 -30 24 -19 34 10 10 27 1 30 -17z m502 -33 c0 -20 -7
-17 -20 6 -9 16 -8 18 5 14 8 -4 15 -12 15 -20z m-515 -96 c0 -17 -6 -33 -13
-35 -16 -6 -33 38 -20 54 6 7 5 14 -3 19 -9 5 -7 9 7 14 22 8 30 -6 29 -52z
m556 -45 c5 -39 19 -72 19 -45 0 7 5 12 10 12 6 0 10 -16 10 -35 0 -38 -15
-47 -25 -15 -4 11 -10 18 -14 16 -4 -3 -8 13 -9 36 -1 23 -10 50 -19 61 -17
19 -17 19 2 16 15 -3 21 -15 26 -46z m154 37 c3 -5 -1 -10 -10 -10 -9 0 -13 5
-10 10 3 6 8 10 10 10 2 0 7 -4 10 -10z m-835 -113 c18 -15 30 -30 28 -33 -10
-9 -60 25 -73 50 -16 31 -7 28 45 -17z m610 -14 c0 -9 11 -26 25 -39 14 -13
25 -28 25 -35 0 -15 -49 34 -66 65 -12 25 -9 40 7 30 5 -3 9 -12 9 -21z m88
-73 c-1 -39 -18 -51 -18 -12 0 25 7 42 16 42 1 0 2 -14 2 -30z m66 -1 c-8 -13
-24 -1 -24 18 0 13 3 13 15 3 8 -7 12 -16 9 -21z m-805 -18 c10 -15 51 -1 52
18 0 11 3 9 9 -6 5 -13 14 -23 21 -23 6 0 24 -13 39 -30 18 -19 23 -30 14 -30
-8 0 -14 5 -14 11 0 5 -4 7 -10 4 -18 -11 -10 -26 20 -36 17 -6 30 -15 30 -21
0 -15 -43 1 -62 23 -16 19 -19 19 -47 4 -24 -12 -29 -12 -25 -2 3 8 -2 14 -11
14 -11 0 -15 -6 -12 -19 3 -10 1 -18 -4 -18 -5 0 -9 6 -10 13 -2 33 -9 50 -28
63 -13 10 -19 24 -18 42 2 26 4 27 26 16 13 -7 27 -17 30 -23z m659 3 c-3 -14
-5 -12 -10 9 -3 19 -2 25 4 19 6 -6 8 -18 6 -28z m-728 6 c0 -5 -2 -10 -4 -10
-3 0 -8 5 -11 10 -3 6 -1 10 4 10 6 0 11 -4 11 -10z m630 -36 c0 -2 -7 -4 -15
-4 -8 0 -15 4 -15 10 0 5 7 7 15 4 8 -4 15 -8 15 -10z m129 -64 c0 -37 -3 -59
-9 -55 -6 3 -10 16 -10 28 0 18 -2 19 -10 7 -8 -13 -10 -12 -10 3 0 9 -5 17
-11 17 -5 0 -7 -4 -4 -10 3 -5 -1 -10 -9 -10 -30 0 -24 17 9 30 22 9 35 20 35
32 0 10 4 18 9 18 5 0 9 -27 10 -60z m-615 -50 l7 -25 -15 25 c-17 28 -21 50
-7 35 5 -6 12 -21 15 -35z m161 -22 c9 -29 16 -98 10 -98 -9 0 -23 36 -30 78
-7 45 7 59 20 20z m-153 -23 c13 -17 -1 -18 -27 -1 -31 21 -34 41 -2 24 12 -7
25 -17 29 -23z m-72 4 c0 -5 -4 -9 -10 -9 -5 0 -10 7 -10 16 0 8 5 12 10 9 6
-3 10 -10 10 -16z m850 -17 c0 -9 -61 -34 -68 -28 -4 5 48 35 61 36 4 0 7 -4
7 -8z m-730 -12 c13 -8 13 -10 -2 -10 -9 0 -20 5 -23 10 -8 13 5 13 25 0z m40
0 c0 -5 -2 -10 -4 -10 -3 0 -8 5 -11 10 -3 6 -1 10 4 10 6 0 11 -4 11 -10z
m590 -10 c0 -5 -6 -10 -14 -10 -8 0 -16 -5 -18 -11 -2 -7 -13 -9 -26 -5 -12 4
-20 11 -17 16 3 5 12 7 20 4 7 -3 22 -1 32 5 23 13 23 13 23 1z m190 -30 c0
-5 -4 -10 -10 -10 -5 0 -10 5 -10 10 0 6 5 10 10 10 6 0 10 -4 10 -10z m-236
-62 c-4 -7 -10 -5 -16 6 -5 9 -17 16 -27 16 -25 0 -35 28 -13 32 20 5 65 -39
56 -54z m-534 42 c0 -5 -4 -10 -10 -10 -5 0 -10 5 -10 10 0 6 5 10 10 10 6 0
10 -4 10 -10z m590 -98 c4 -38 13 -59 33 -80 22 -23 26 -33 19 -52 l-9 -24 -7
27 c-3 15 -10 27 -15 27 -5 0 -15 16 -21 35 -6 19 -15 35 -18 35 -4 0 -7 20
-8 45 -1 63 20 52 26 -13z m-672 36 c16 -16 15 -28 -3 -28 -8 0 -15 2 -15 4 0
2 -3 11 -6 20 -7 19 7 21 24 4z m892 -21 c0 -18 -2 -19 -10 -7 -13 20 -13 43
0 35 6 -3 10 -16 10 -28z m12 -67 c5 -32 -6 -41 -16 -14 -9 24 -7 56 3 50 5
-3 11 -19 13 -36z m-418 -67 c3 -7 4 -13 1 -13 -5 0 -65 61 -65 67 0 8 58 -41
64 -54z m416 -4 c0 -18 -2 -20 -15 -9 -13 11 -13 15 -3 21 18 12 18 12 18 -12z
m-250 -43 c0 -8 -4 -17 -9 -21 -6 -3 -9 4 -8 15 1 23 17 28 17 6z m-175 -12
c35 2 65 -10 65 -25 0 -6 -12 -8 -30 -5 -16 3 -43 9 -60 12 -18 3 -30 12 -30
21 0 11 4 13 13 5 6 -5 26 -9 42 -8z m265 -26 c-1 -29 -3 -38 -9 -28 -5 8 -7
26 -6 40 4 30 4 30 10 30 3 0 5 -19 5 -42z m-42 -68 c8 -54 7 -61 -4 -45 -13
17 -21 125 -9 113 3 -2 9 -33 13 -68z m-46 6 c-7 -13 -21 16 -14 32 4 13 7 12
12 -4 4 -10 5 -23 2 -28z m238 -49 c0 -18 -2 -19 -10 -7 -13 20 -13 43 0 35 6
-3 10 -16 10 -28z m-3 -89 c-2 -13 -4 -3 -4 22 0 25 2 35 4 23 2 -13 2 -33 0
-45z m-149 -13 c0 -14 -4 -25 -9 -25 -10 0 -12 34 -2 43 10 10 11 9 11 -18z
m12 -76 c0 -11 -4 -17 -10 -14 -5 3 -10 15 -10 26 0 11 5 17 10 14 6 -3 10
-15 10 -26z m40 -48 c0 -16 -28 -20 -34 -5 -4 9 1 14 14 14 11 0 20 -4 20 -9z
m240 -61 c0 -5 -5 -10 -11 -10 -5 0 -7 5 -4 10 3 6 8 10 11 10 2 0 4 -4 4 -10z
m20 -30 c0 -5 -4 -10 -10 -10 -5 0 -10 5 -10 10 0 6 5 10 10 10 6 0 10 -4 10
-10z m-313 -25 c-4 -8 -2 -17 3 -20 5 -3 6 -13 3 -21 -5 -13 -7 -13 -14 -2
-12 19 -11 58 2 58 6 0 9 -7 6 -15z m273 -5 c0 -5 -8 -10 -17 -11 -10 0 -28
-2 -40 -5 -24 -4 -32 11 -10 19 22 9 67 7 67 -3z m-340 -130 c0 -5 -2 -10 -4
-10 -3 0 -8 5 -11 10 -3 6 -1 10 4 10 6 0 11 -4 11 -10z m501 -47 c13 -15 12
-16 -8 -11 -13 4 -26 2 -29 -4 -6 -10 -24 8 -24 25 0 14 48 7 61 -10z m89 8
c0 -10 -30 -24 -37 -17 -3 3 -2 9 2 15 8 13 35 15 35 2z m-20 -53 c11 -4 9 -8
-9 -17 -19 -11 -25 -11 -32 0 -15 25 -11 41 9 31 9 -5 24 -11 32 -14z m90 -48
c0 -5 -4 -10 -10 -10 -5 0 -10 5 -10 10 0 6 5 10 10 10 6 0 10 -4 10 -10z
m-30 -52 c0 -21 0 -21 -22 -2 -13 10 -25 20 -27 21 -2 2 8 3 22 3 21 0 27 -5
27 -22z m44 -94 c3 -8 2 -12 -4 -9 -6 3 -10 10 -10 16 0 14 7 11 14 -7z"/>
<path d="M1727 3163 c-4 -3 -7 -11 -7 -17 0 -6 5 -5 12 2 6 6 9 14 7 17 -3 3
-9 2 -12 -2z"/>
<path d="M3214 1605 c8 -32 23 -55 37 -55 19 0 8 38 -17 61 l-27 24 7 -30z"/>
<path d="M3310 1490 c0 -5 5 -10 10 -10 6 0 10 5 10 10 0 6 -4 10 -10 10 -5 0
-10 -4 -10 -10z"/>
<path d="M3147 4203 c-12 -12 -7 -22 8 -17 8 4 15 10 15 15 0 11 -14 12 -23 2z"/>
<path d="M4344 4070 c-23 -11 -62 -44 -89 -77 -68 -81 -148 -118 -180 -83 -10
11 -28 20 -40 20 -13 0 -30 11 -39 24 -13 21 -20 23 -44 17 -26 -8 -99 -1
-132 12 -8 4 -26 -2 -40 -13 -18 -15 -20 -18 -6 -13 13 4 17 3 12 -5 -4 -7
-15 -12 -25 -12 -10 0 -28 -12 -42 -26 -13 -14 -31 -23 -41 -21 -9 3 -26 -2
-37 -10 -16 -11 -25 -11 -43 -2 -17 9 -24 9 -33 -5 -7 -9 -19 -16 -27 -16 -9
0 -21 -7 -28 -15 -7 -8 -22 -15 -34 -15 -15 0 -24 -9 -32 -34 -14 -46 7 -75
60 -80 21 -2 41 -8 45 -15 4 -6 17 -9 29 -6 14 2 22 -1 22 -11 0 -8 5 -14 10
-14 17 0 11 -40 -7 -46 -35 -11 -48 -22 -48 -40 0 -11 6 -18 14 -16 7 1 18 -2
25 -7 16 -13 49 -17 64 -7 8 5 18 4 25 -3 16 -16 70 -14 93 4 22 16 64 20 64
5 0 -18 23 -11 51 16 23 22 30 24 46 13 30 -18 70 -3 89 34 30 58 66 66 57 12
-7 -41 2 -44 49 -15 18 11 29 20 25 20 -4 0 -3 9 3 20 13 24 30 26 30 5 0 -8
-4 -15 -9 -15 -12 0 -34 -56 -27 -68 3 -5 -6 -20 -19 -32 -14 -13 -25 -32 -25
-42 0 -23 27 -35 43 -19 6 6 21 11 32 11 12 0 30 8 41 18 10 10 36 27 56 39
35 21 38 21 47 5 5 -10 5 -27 -2 -42 -5 -14 -11 -44 -13 -67 -4 -52 12 -66 71
-66 36 0 45 -4 55 -25 10 -24 11 -24 30 -7 18 16 20 16 26 2 3 -9 20 -23 36
-32 30 -14 30 -14 26 9 l-5 25 47 -19 c25 -10 52 -15 59 -11 13 8 6 57 -10 67
-5 3 -9 13 -9 24 0 17 -27 36 -38 25 -3 -3 -1 -5 5 -5 13 0 25 -28 17 -41 -6
-11 -54 30 -54 47 0 6 -6 17 -14 23 -16 13 -27 65 -28 128 0 35 -4 42 -32 54
-18 9 -30 20 -27 29 4 18 4 38 -2 110 -4 56 5 90 24 90 6 0 9 -7 6 -15 -9 -22
8 -26 46 -10 l35 14 48 -48 c51 -50 124 -131 124 -138 0 -3 -19 -3 -43 -2 -30
2 -57 -4 -86 -19 -23 -13 -49 -21 -56 -20 -26 5 -20 -17 8 -30 34 -16 37 -41
3 -35 -28 6 -40 -9 -31 -38 5 -15 10 -18 18 -10 6 6 19 11 29 11 10 0 18 7 18
14 0 11 11 15 39 13 31 -1 42 -7 55 -29 10 -16 22 -25 31 -22 16 6 55 -12 55
-26 0 -6 -9 -10 -21 -10 -11 0 -17 -4 -14 -10 3 -5 15 -10 25 -10 11 0 31 -12
45 -26 33 -32 42 -26 15 9 -17 22 -19 30 -10 47 6 12 18 19 25 16 16 -6 125
25 125 36 0 5 -6 8 -13 8 -7 0 -18 9 -25 20 -7 11 -21 20 -31 20 -27 0 -51 10
-51 22 0 5 -11 19 -26 31 -14 12 -26 29 -27 38 -2 10 -9 24 -16 33 -21 25 -4
32 22 9 25 -23 93 -50 103 -41 10 11 -6 28 -26 28 -10 0 -21 8 -25 19 -3 11
-18 21 -39 24 -19 3 -59 17 -90 31 -31 14 -61 26 -66 26 -6 0 -10 6 -10 13 0
6 -13 18 -29 25 -16 7 -34 25 -39 40 -5 15 -30 49 -56 75 -25 26 -49 60 -52
75 -10 40 -13 43 -34 30 -15 -10 -22 -9 -38 5 -22 20 -16 20 -68 -3z m-44
-230 c0 -5 -7 -10 -15 -10 -9 0 -18 -7 -21 -15 -4 -8 -10 -12 -15 -9 -5 3 -9
0 -9 -7 0 -7 -3 -9 -7 -6 -3 4 4 18 17 32 24 25 50 33 50 15z m-170 -200 c0
-5 -4 -10 -10 -10 -5 0 -10 5 -10 10 0 6 5 10 10 10 6 0 10 -4 10 -10z m240
-110 c0 -5 -4 -10 -10 -10 -5 0 -10 5 -10 10 0 6 5 10 10 10 6 0 10 -4 10 -10z"/>
<path d="M6086 3825 c-8 -8 -28 -15 -45 -15 -16 0 -33 -5 -37 -11 -3 -6 -16
-8 -28 -5 -16 4 -29 -2 -44 -19 -23 -27 -74 -42 -141 -44 -34 -1 -52 -7 -72
-27 -17 -16 -34 -24 -43 -21 -9 4 -41 -7 -72 -23 -31 -17 -57 -30 -59 -30 -2
0 -6 11 -9 25 -9 34 -17 31 -44 -15 -25 -44 -33 -48 -52 -25 -7 8 -18 15 -25
15 -7 0 -16 11 -19 25 -4 14 -13 25 -21 25 -8 0 -17 -11 -21 -25 -11 -44 -44
-25 -44 26 0 10 -4 19 -10 19 -5 0 -10 -4 -10 -10 0 -17 -28 -11 -47 9 -27 28
-78 17 -93 -18 -6 -16 -8 -40 -4 -54 4 -19 2 -27 -7 -27 -7 0 -1 -12 14 -28
28 -29 35 -56 16 -67 -6 -4 -8 -13 -5 -21 3 -7 1 -16 -5 -19 -5 -4 -7 -10 -5
-14 3 -4 -4 -20 -15 -37 -21 -32 -25 -64 -8 -64 5 0 8 4 5 9 -6 9 75 27 107
23 9 -1 17 5 17 14 0 12 8 14 38 9 30 -4 33 -3 15 4 -32 14 -28 24 6 16 17 -3
32 -2 36 4 3 7 0 8 -9 5 -9 -3 -16 -2 -16 4 0 13 47 23 85 18 43 -6 85 -24 85
-36 0 -6 8 -10 18 -8 11 2 17 -3 16 -14 -1 -10 2 -18 7 -18 5 0 9 3 9 8 0 4
10 13 22 21 19 12 23 11 39 -10 10 -13 15 -27 13 -30 -6 -10 68 11 82 22 8 6
18 4 29 -7 14 -14 18 -15 25 -3 5 7 12 10 16 7 3 -4 -11 -17 -32 -30 -35 -21
-37 -23 -16 -26 25 -4 100 30 118 53 5 8 23 15 38 17 26 3 28 0 32 -39 2 -23
-1 -45 -7 -48 -22 -14 12 -35 48 -29 23 4 43 0 59 -11 19 -12 29 -13 45 -4 12
6 36 8 56 4 20 -3 40 -2 47 5 17 14 46 2 46 -19 1 -14 3 -13 15 3 10 14 15 15
15 6 0 -11 3 -11 12 -2 9 9 14 7 25 -6 12 -16 14 -16 27 2 15 18 33 18 80 0
14 -6 16 16 16 209 0 167 -3 217 -13 226 -8 6 -17 8 -21 3 -4 -4 -12 1 -17 11
-6 9 -14 15 -19 12 -4 -3 -10 2 -13 10 -8 19 -65 48 -84 41 -16 -7 -103 30
-103 43 0 17 -29 20 -44 6z m-501 -384 c3 -5 1 -12 -4 -15 -12 -8 -41 3 -41
15 0 12 37 12 45 0z"/>
<path d="M4510 3733 c0 -5 7 -17 16 -28 13 -17 16 -18 24 -5 5 8 10 11 10 6 0
-11 30 14 30 25 0 5 -18 9 -40 9 -22 0 -40 -3 -40 -7z"/>
<path d="M4497 3713 c-7 -12 11 -53 22 -53 5 0 13 5 16 10 3 6 1 10 -4 10 -6
0 -11 6 -11 14 0 17 -16 30 -23 19z"/>
<path d="M4050 3615 c0 -8 5 -15 10 -15 6 0 10 7 10 15 0 8 -4 15 -10 15 -5 0
-10 -7 -10 -15z"/>
<path d="M3400 3550 c0 -22 4 -40 8 -40 5 0 7 14 4 30 -3 18 0 30 7 30 6 0 11
5 11 10 0 6 -7 10 -15 10 -11 0 -15 -11 -15 -40z"/>
<path d="M4050 3490 c0 -5 7 -10 15 -10 8 0 15 5 15 10 0 6 -7 10 -15 10 -8 0
-15 -4 -15 -10z"/>
<path d="M4700 3490 c0 -5 10 -10 23 -10 18 0 19 2 7 10 -19 13 -30 13 -30 0z"/>
<path d="M5361 3408 c-5 -13 -22 -30 -37 -38 -16 -8 -33 -19 -39 -23 -5 -4
-19 -14 -30 -22 -27 -18 -15 -27 39 -27 45 -1 59 -11 34 -22 -14 -6 70 2 110
10 12 2 22 1 21 -3 -3 -20 2 -24 16 -13 12 10 18 10 30 0 34 -28 12 6 -30 46
-25 23 -45 49 -45 56 0 8 -14 24 -30 36 l-30 23 -9 -23z"/>
<path d="M4780 3400 c0 -13 18 -22 24 -11 3 5 -1 11 -9 15 -8 3 -15 1 -15 -4z"/>
<path d="M3620 3356 c0 -17 5 -38 11 -46 8 -11 9 -7 4 17 -6 31 -5 32 32 35
l38 3 -42 11 -43 12 0 -32z"/>
<path d="M4818 3373 c7 -3 16 -2 19 1 4 3 -2 6 -13 5 -11 0 -14 -3 -6 -6z"/>
<path d="M3286 3335 c4 -9 15 -20 26 -26 19 -10 19 -10 3 15 -19 28 -38 35
-29 11z"/>
<path d="M4790 3320 c0 -5 5 -10 10 -10 6 0 10 5 10 10 0 6 -4 10 -10 10 -5 0
-10 -4 -10 -10z"/>
<path d="M3427 3281 c-4 -17 -3 -21 5 -13 5 5 8 16 6 23 -3 8 -7 3 -11 -10z"/>
<path d="M6170 3271 c0 -6 5 -13 10 -16 6 -3 10 1 10 9 0 9 -4 16 -10 16 -5 0
-10 -4 -10 -9z"/>
<path d="M5880 3240 c0 -5 5 -10 10 -10 6 0 10 5 10 10 0 6 -4 10 -10 10 -5 0
-10 -4 -10 -10z"/>
<path d="M3620 3221 c0 -5 7 -11 14 -14 10 -4 13 -1 9 9 -6 15 -23 19 -23 5z"/>
<path d="M3260 3197 c0 -22 26 -41 36 -26 5 8 3 9 -5 5 -8 -5 -11 -2 -9 9 2
10 -3 20 -9 22 -7 3 -13 -2 -13 -10z"/>
<path d="M3240 3153 c0 -14 19 -38 25 -32 8 8 -5 39 -16 39 -5 0 -9 -3 -9 -7z"/>
<path d="M3455 3140 c3 -5 8 -10 11 -10 2 0 4 5 4 10 0 6 -5 10 -11 10 -5 0
-7 -4 -4 -10z"/>
<path d="M3540 3143 c0 -5 7 -18 15 -29 12 -16 14 -16 15 -3 0 9 -7 22 -15 29
-8 7 -15 8 -15 3z"/>
<path d="M3710 3132 c0 -12 19 -26 26 -19 2 2 -2 10 -11 17 -9 8 -15 8 -15 2z"/>
<path d="M3600 3092 c0 -19 19 -52 30 -52 16 0 12 16 -10 41 -11 14 -19 18
-20 11z"/>
<path d="M3740 3095 c0 -12 35 -75 42 -75 11 0 10 4 -9 45 -14 29 -33 47 -33
30z"/>
<path d="M3690 3056 c0 -9 5 -16 10 -16 6 0 10 4 10 9 0 6 -4 13 -10 16 -5 3
-10 -1 -10 -9z"/>
<path d="M3656 3043 c-6 -14 -5 -15 5 -6 7 7 10 15 7 18 -3 3 -9 -2 -12 -12z"/>
<path d="M3596 2983 c8 -38 50 -130 63 -138 16 -9 14 -1 -19 68 -16 35 -30 69
-30 75 0 6 -5 14 -10 17 -7 4 -9 -3 -4 -22z"/>
<path d="M3680 2915 c0 -12 33 -55 41 -55 5 0 3 14 -6 30 -13 26 -35 41 -35
25z"/>
<path d="M2522 2855 c0 -16 2 -22 5 -12 2 9 2 23 0 30 -3 6 -5 -1 -5 -18z"/>
<path d="M2491 2814 c0 -11 3 -14 6 -6 3 7 2 16 -1 19 -3 4 -6 -2 -5 -13z"/>
<path d="M3196 2822 c6 -4 15 -21 18 -38 8 -36 48 -84 54 -65 2 6 0 17 -6 24
-5 7 -15 28 -21 47 -8 26 -17 36 -33 37 -13 1 -18 -1 -12 -5z"/>
<path d="M3777 2752 c3 -12 11 -23 19 -26 20 -8 17 8 -5 28 -19 17 -19 17 -14
-2z"/>
<path d="M3740 2680 c0 -5 9 -14 20 -20 22 -12 27 -1 8 18 -14 14 -28 16 -28
2z"/>
<path d="M1822 2535 c-28 -32 -28 -55 -1 -55 16 0 20 5 16 20 -3 10 -2 19 2
18 20 -2 31 4 31 17 0 17 16 20 25 5 10 -16 25 -12 19 5 -10 25 -67 19 -92
-10z"/>
<path d="M2120 2489 c-12 -22 -8 -35 8 -25 13 8 22 46 11 46 -4 0 -13 -9 -19
-21z"/>
<path d="M1805 2460 c3 -5 8 -10 11 -10 2 0 4 5 4 10 0 6 -5 10 -11 10 -5 0
-7 -4 -4 -10z"/>
<path d="M2066 2425 c4 -8 8 -15 10 -15 2 0 4 7 4 15 0 8 -4 15 -10 15 -5 0
-7 -7 -4 -15z"/>
<path d="M1725 2390 c3 -5 12 -10 20 -10 8 0 17 5 20 10 4 6 -5 10 -20 10 -15
0 -24 -4 -20 -10z"/>
<path d="M1775 2380 c-3 -5 1 -10 9 -10 9 0 16 5 16 10 0 6 -4 10 -9 10 -6 0
-13 -4 -16 -10z"/>
<path d="M1620 2271 c0 -6 -7 -11 -15 -11 -8 0 -15 -4 -15 -10 0 -5 2 -10 4
-10 2 0 12 -3 20 -6 12 -5 15 -2 9 12 -5 14 -3 16 11 11 11 -5 16 -3 14 5 -5
15 -28 23 -28 9z"/>
<path d="M1620 2200 c0 -5 4 -10 9 -10 6 0 13 5 16 10 3 6 -1 10 -9 10 -9 0
-16 -4 -16 -10z"/>
<path d="M3865 2160 c-3 -5 1 -10 10 -10 9 0 13 5 10 10 -3 6 -8 10 -10 10 -2
0 -7 -4 -10 -10z"/>
<path d="M3882 2100 c22 -39 38 -51 38 -30 0 17 -30 58 -46 64 -10 4 -8 -6 8
-34z"/>
<path d="M709 2008 c-7 -18 -19 -38 -27 -43 -9 -7 -12 -25 -10 -50 l4 -40 14
33 c8 18 20 30 26 28 31 -12 46 53 20 87 -12 16 -15 15 -27 -15z"/>
<path d="M763 1948 c-6 -7 -13 -21 -16 -31 -4 -10 -11 -16 -16 -13 -13 8 -22
-35 -11 -53 8 -14 11 -13 16 6 3 13 10 20 15 17 5 -2 14 4 21 16 7 11 18 20
25 20 7 0 13 11 13 25 0 27 -30 35 -47 13z"/>
<path d="M23 1911 c-23 -19 -23 -22 -23 -270 0 -138 3 -251 7 -251 3 0 19 15
34 33 25 29 30 31 49 19 11 -7 26 -9 33 -5 6 4 36 10 66 14 33 5 60 15 68 24
9 13 22 16 55 12 66 -8 101 -18 120 -35 14 -12 23 -12 46 -3 22 9 35 9 55 0
15 -7 27 -16 27 -21 0 -4 14 -8 30 -8 22 0 30 -5 30 -18 0 -26 20 -42 52 -42
15 0 28 -4 28 -10 0 -5 1 -13 2 -17 4 -12 67 -53 81 -53 13 0 37 -44 37 -67 0
-7 11 -13 26 -13 21 0 24 3 15 14 -8 10 -8 20 4 42 8 16 15 23 15 15 0 -10 3
-11 14 -2 8 7 28 16 45 21 26 7 34 5 53 -16 13 -13 33 -24 46 -24 12 0 22 -4
22 -8 0 -13 -34 -42 -49 -42 -6 0 -14 -14 -18 -30 -4 -24 -8 -28 -19 -19 -8 6
-12 15 -9 19 5 8 -23 50 -34 50 -4 0 -13 -11 -19 -24 -13 -28 -47 -42 -66 -27
-15 12 -26 5 -26 -18 0 -9 -11 -29 -25 -45 -14 -16 -25 -39 -25 -51 0 -42 -53
-62 -81 -29 -7 8 -20 13 -30 11 -11 -3 -21 4 -29 21 l-12 26 -16 -21 c-23 -28
-58 -45 -112 -54 -25 -4 -56 -10 -70 -13 -14 -3 -19 -4 -12 0 18 9 15 32 -7
44 -30 16 -81 13 -81 -5 0 -17 -35 -21 -45 -5 -11 18 -42 11 -58 -14 -9 -13
-29 -26 -46 -29 -17 -4 -31 -12 -31 -19 -1 -19 -69 -60 -90 -53 -9 3 -25 3
-34 -1 -14 -5 -16 -32 -16 -234 0 -204 2 -229 17 -234 9 -4 20 -1 24 5 9 16
29 2 23 -16 -3 -8 5 -25 19 -37 19 -19 23 -30 19 -60 -3 -26 1 -42 13 -54 16
-16 16 -27 -1 -69 -7 -19 -6 -19 12 -4 10 9 36 24 58 33 29 14 35 20 25 27
-11 7 -12 12 -2 28 10 16 9 20 -7 24 -19 5 -35 -16 -31 -40 1 -7 -5 -13 -14
-13 -8 0 -15 9 -15 21 0 13 -4 18 -12 13 -8 -5 -9 3 -5 31 4 27 1 49 -13 78
-23 48 -20 56 15 33 22 -14 25 -15 25 -1 0 17 18 19 40 5 9 -6 17 -5 22 3 5 7
5 -7 2 -29 -6 -44 2 -59 26 -44 12 7 12 12 2 22 -20 20 -15 56 10 64 17 5 28
-1 50 -25 l28 -31 0 29 c0 16 -6 32 -12 34 -16 7 6 24 40 33 31 9 91 -49 102
-97 l8 -34 1 32 c1 24 -8 43 -34 72 -40 43 -38 46 36 56 19 3 57 8 84 13 28 4
64 7 82 6 19 -1 31 3 30 9 -1 7 11 11 28 10 28 -2 46 3 100 23 11 4 25 8 30 9
6 0 18 5 28 9 10 5 21 6 24 3 3 -4 13 -2 22 2 18 10 68 21 126 28 22 2 49 8
60 12 51 21 185 49 243 50 20 1 31 6 30 14 -2 8 11 12 42 12 25 0 55 6 68 13
12 7 32 12 45 11 52 -5 87 1 87 15 0 8 8 17 18 19 9 3 -16 5 -56 6 -40 0 -82
6 -93 12 -15 7 -24 7 -34 -1 -20 -17 -59 -8 -69 16 -5 11 -23 29 -40 39 -22
12 -27 19 -16 23 8 3 23 13 33 23 19 17 18 18 -19 27 -22 6 -55 13 -74 17 -37
8 -60 22 -60 36 0 5 12 4 27 -2 14 -5 34 -7 42 -3 44 18 81 21 92 8 6 -8 25
-14 42 -14 17 0 27 3 24 7 -4 3 -2 12 4 20 6 7 10 13 8 14 -2 0 -30 2 -62 3
-51 3 -61 7 -92 39 -19 20 -35 43 -35 52 0 12 -4 14 -16 7 -11 -6 -28 -5 -46
2 -24 9 -28 15 -23 36 4 14 10 29 15 34 13 13 30 -3 23 -22 -6 -16 -5 -16 13
0 16 14 23 15 32 6 7 -7 12 -17 12 -24 0 -6 7 -15 16 -18 14 -5 16 -1 10 26
-4 20 -3 28 3 20 6 -10 10 -7 15 13 5 18 1 35 -8 51 -17 25 -12 54 9 54 8 0
15 10 17 23 2 14 10 22 23 22 35 0 42 15 33 77 -4 33 -12 67 -17 76 -5 9 -10
22 -10 27 -1 6 -4 19 -7 29 -5 16 -8 17 -15 4 -9 -15 -69 -18 -101 -4 -14 6
-18 3 -18 -13 0 -39 -18 -21 -30 29 -10 42 -15 49 -26 39 -8 -6 -14 -18 -14
-26 0 -8 -4 -11 -10 -8 -5 3 -10 0 -10 -8 0 -15 -48 -37 -82 -37 -11 0 -16 -5
-12 -11 4 -6 -1 -9 -12 -8 -26 5 -44 -9 -44 -33 0 -16 -5 -19 -21 -15 -12 3
-22 0 -26 -9 -8 -21 -20 -17 -26 8 -9 33 27 108 52 108 15 0 21 6 21 24 0 13
7 26 15 30 8 3 15 10 15 16 0 16 -27 12 -34 -5 -7 -19 -91 -18 -108 2 -7 8 -9
34 -5 68 3 30 2 55 -2 55 -4 0 -13 12 -19 26 -16 33 -30 23 -30 -20 0 -47 -9
-59 -44 -54 -21 4 -33 -1 -44 -16 -12 -17 -16 -19 -24 -7 -6 10 -12 12 -22 5
-7 -6 -28 -11 -46 -12 -18 -2 -44 -9 -57 -18 -22 -14 -24 -13 -48 17 -14 18
-23 38 -20 46 3 7 -6 25 -21 40 -14 14 -26 31 -26 37 0 6 -16 26 -35 43 -19
18 -35 37 -35 43 0 5 -11 10 -25 10 -14 0 -25 -4 -25 -9 0 -4 -21 -11 -47 -15
-128 -17 -119 -17 -163 19 -48 40 -56 41 -87 16z m867 -315 c0 -3 -4 -8 -10
-11 -5 -3 -10 -1 -10 4 0 6 5 11 10 11 6 0 10 -2 10 -4z m199 -271 c-7 -7 -13
-5 -19 5 -15 24 -11 31 10 18 13 -9 16 -16 9 -23z m76 -15 c3 -5 15 -10 26
-10 15 0 19 -7 19 -32 0 -31 0 -31 -20 -13 -11 10 -30 23 -42 29 -29 15 -35
36 -9 36 11 0 23 -4 26 -10z m-95 -20 c0 -5 -2 -10 -4 -10 -3 0 -8 5 -11 10
-3 6 -1 10 4 10 6 0 11 -4 11 -10z m37 -16 c-3 -3 -12 -4 -19 -1 -8 3 -5 6 6
6 11 1 17 -2 13 -5z"/>
<path d="M420 1905 c0 -8 4 -15 10 -15 5 0 7 7 4 15 -4 8 -8 15 -10 15 -2 0
-4 -7 -4 -15z"/>
<path d="M1265 1880 c3 -5 8 -10 11 -10 2 0 4 5 4 10 0 6 -5 10 -11 10 -5 0
-7 -4 -4 -10z"/>
<path d="M1085 1870 c3 -5 8 -10 11 -10 2 0 4 5 4 10 0 6 -5 10 -11 10 -5 0
-7 -4 -4 -10z"/>
<path d="M1130 1856 c0 -9 5 -16 10 -16 6 0 10 4 10 9 0 6 -4 13 -10 16 -5 3
-10 -1 -10 -9z"/>
<path d="M746 1843 c-6 -14 -5 -15 5 -6 7 7 10 15 7 18 -3 3 -9 -2 -12 -12z"/>
<path d="M680 1820 c0 -19 11 -26 23 -14 8 8 -3 34 -14 34 -5 0 -9 -9 -9 -20z"/>
<path d="M4090 1832 c0 -5 9 -17 20 -27 22 -20 26 -9 6 18 -14 18 -26 22 -26
9z"/>
<path d="M1120 1790 c0 -5 7 -10 15 -10 8 0 15 5 15 10 0 6 -7 10 -15 10 -8 0
-15 -4 -15 -10z"/>
<path d="M4089 1788 c-6 -15 -4 -118 2 -118 5 0 9 -5 9 -11 0 -5 -4 -7 -10 -4
-5 3 -10 1 -10 -4 0 -22 45 -4 48 19 2 12 -1 20 -6 16 -6 -3 -12 11 -14 32 -3
20 -1 38 3 40 10 4 0 32 -12 32 -5 0 -9 -1 -10 -2z"/>
<path d="M2327 1693 c-4 -3 -7 -11 -7 -17 0 -6 5 -5 12 2 6 6 9 14 7 17 -3 3
-9 2 -12 -2z"/>
<path d="M2301 1584 c0 -11 3 -14 6 -6 3 7 2 16 -1 19 -3 4 -6 -2 -5 -13z"/>
<path d="M2291 1524 c0 -11 3 -14 6 -6 3 7 2 16 -1 19 -3 4 -6 -2 -5 -13z"/>
<path d="M1551 1504 c0 -11 3 -14 6 -6 3 7 2 16 -1 19 -3 4 -6 -2 -5 -13z"/>
<path d="M2282 1470 c0 -14 2 -19 5 -12 2 6 2 18 0 25 -3 6 -5 1 -5 -13z"/>
<path d="M1506 1461 c-4 -7 -5 -15 -2 -18 9 -9 19 4 14 18 -4 11 -6 11 -12 0z"/>
<path d="M2271 1424 c0 -11 3 -14 6 -6 3 7 2 16 -1 19 -3 4 -6 -2 -5 -13z"/>
<path d="M1495 1420 c-3 -5 -2 -10 4 -10 5 0 13 5 16 10 3 6 2 10 -4 10 -5 0
-13 -4 -16 -10z"/>
<path d="M80 1396 c0 -9 7 -16 16 -16 9 0 14 5 12 12 -6 18 -28 21 -28 4z"/>
<path d="M2256 1375 c-3 -8 -1 -15 4 -15 6 0 10 7 10 15 0 8 -2 15 -4 15 -2 0
-6 -7 -10 -15z"/>
<path d="M100 1321 c-8 -6 -18 -7 -22 -5 -4 3 -8 -4 -8 -15 0 -15 5 -19 18
-15 33 11 62 27 62 36 0 11 -31 10 -50 -1z"/>
<path d="M2247 1323 c-4 -3 -7 -11 -7 -17 0 -6 5 -5 12 2 6 6 9 14 7 17 -3 3
-9 2 -12 -2z"/>
<path d="M35 1279 c-4 -6 -5 -13 -2 -16 7 -7 27 6 27 18 0 12 -17 12 -25 -2z"/>
<path d="M2194 1282 c4 -7 16 -12 26 -12 10 0 21 -8 23 -17 4 -14 5 -12 6 5 1
13 -5 22 -13 22 -8 0 -22 3 -32 7 -12 4 -15 3 -10 -5z"/>
<path d="M2245 1190 c3 -19 8 -36 11 -39 9 -9 3 45 -6 59 -8 11 -9 5 -5 -20z"/>
<path d="M1375 1050 c-3 -5 3 -10 14 -10 12 0 21 5 21 10 0 6 -6 10 -14 10 -8
0 -18 -4 -21 -10z"/>
<path d="M6385 1020 c-3 -5 -1 -10 4 -10 6 0 11 5 11 10 0 6 -2 10 -4 10 -3 0
-8 -4 -11 -10z"/>
<path d="M6333 1012 c-13 -2 -23 -8 -23 -13 0 -13 37 -11 45 2 9 14 5 16 -22
11z"/>
<path d="M6210 970 c0 -12 45 -24 65 -16 29 11 15 26 -25 26 -22 0 -40 -4 -40
-10z"/>
<path d="M6230 930 c0 -5 5 -10 11 -10 5 0 7 5 4 10 -3 6 -8 10 -11 10 -2 0
-4 -4 -4 -10z"/>
<path d="M6050 920 c-13 -8 -13 -10 2 -10 9 0 20 5 23 10 8 13 -5 13 -25 0z"/>
<path d="M6055 870 c3 -5 11 -10 16 -10 6 0 7 5 4 10 -3 6 -11 10 -16 10 -6 0
-7 -4 -4 -10z"/>
<path d="M5200 860 c-17 -6 -9 -7 25 -3 28 3 52 7 54 9 8 7 -54 2 -79 -6z"/>
<path d="M6350 860 c-13 -9 -13 -10 0 -10 8 0 22 5 30 10 13 9 13 10 0 10 -8
0 -22 -5 -30 -10z"/>
<path d="M5030 837 c-63 -10 -64 -10 -31 -19 23 -6 43 -5 62 3 16 6 40 12 54
12 14 0 28 3 31 8 6 11 -30 10 -116 -4z"/>
<path d="M6191 808 c-1 -21 4 -28 18 -28 11 0 23 5 27 11 4 7 9 7 13 1 3 -5
15 -6 26 -2 19 7 18 8 -5 15 -14 4 -29 13 -33 19 -6 7 -7 4 -3 -6 4 -13 0 -18
-14 -18 -10 0 -21 8 -23 18 -3 10 -5 6 -6 -10z"/>
<path d="M4910 810 c-12 -8 -12 -10 5 -10 11 0 27 5 35 10 12 8 12 10 -5 10
-11 0 -27 -5 -35 -10z"/>
<path d="M6078 795 c-8 -8 2 -45 13 -45 5 0 9 4 9 9 0 5 9 13 21 16 15 5 18
10 10 18 -7 7 -14 7 -25 -2 -10 -8 -15 -9 -18 -1 -2 6 -6 8 -10 5z"/>
<path d="M1618 773 c7 -3 16 -2 19 1 4 3 -2 6 -13 5 -11 0 -14 -3 -6 -6z"/>
<path d="M6045 770 c-3 -5 -1 -10 4 -10 6 0 11 5 11 10 0 6 -2 10 -4 10 -3 0
-8 -4 -11 -10z"/>
<path d="M6220 734 c0 -4 7 -12 16 -19 14 -9 14 -16 5 -34 -7 -12 -16 -19 -22
-16 -5 4 -9 2 -9 -3 0 -5 9 -12 21 -15 15 -4 19 -2 15 9 -7 18 8 18 23 0 6 -8
22 -16 36 -18 18 -4 25 0 29 16 8 31 8 32 -15 33 -24 2 -51 22 -44 33 3 4 -5
10 -18 14 -29 7 -37 7 -37 0z"/>
<path d="M6320 730 c0 -5 9 -10 21 -10 11 0 17 5 14 10 -3 6 -13 10 -21 10 -8
0 -14 -4 -14 -10z"/>
<path d="M5875 720 c3 -5 8 -10 11 -10 2 0 4 5 4 10 0 6 -5 10 -11 10 -5 0 -7
-4 -4 -10z"/>
<path d="M6185 720 c-3 -6 1 -7 9 -4 18 7 21 14 7 14 -6 0 -13 -4 -16 -10z"/>
<path d="M5350 710 c0 -5 5 -10 10 -10 6 0 10 5 10 10 0 6 -4 10 -10 10 -5 0
-10 -4 -10 -10z"/>
<path d="M5871 684 c0 -11 3 -14 6 -6 3 7 2 16 -1 19 -3 4 -6 -2 -5 -13z"/>
<path d="M5958 663 c30 -37 55 -39 60 -5 2 14 10 22 23 22 10 0 19 3 19 8 0 4
-29 7 -64 8 l-64 0 26 -33z"/>
<path d="M5766 683 c-3 -3 1 -15 11 -25 9 -10 13 -18 10 -18 -3 0 6 -12 20
-26 18 -18 28 -22 33 -14 12 19 46 7 42 -14 -3 -16 1 -18 30 -12 18 3 35 11
36 17 3 6 9 6 18 -2 16 -13 68 -3 59 11 -3 6 -21 10 -39 10 -25 0 -35 5 -39
20 -4 17 -9 18 -38 10 -32 -9 -79 -4 -79 9 0 11 -57 41 -64 34z m144 -64 c0
-5 5 -7 10 -4 6 3 10 1 10 -4 0 -17 -27 -13 -34 4 -3 8 -1 15 4 15 6 0 10 -5
10 -11z"/>
<path d="M5730 670 c0 -5 5 -10 10 -10 6 0 10 5 10 10 0 6 -4 10 -10 10 -5 0
-10 -4 -10 -10z"/>
<path d="M6080 665 c0 -8 -9 -15 -20 -15 -13 0 -17 -5 -14 -14 3 -9 18 -14 35
-14 19 1 37 -7 50 -21 15 -16 24 -20 32 -12 6 6 21 11 33 11 13 0 25 4 29 9 3
6 -10 7 -32 4 -21 -3 -35 -2 -31 2 7 8 -16 28 -60 53 -18 10 -22 10 -22 -3z"/>
<path d="M6378 673 c7 -3 16 -2 19 1 4 3 -2 6 -13 5 -11 0 -14 -3 -6 -6z"/>
<path d="M5583 633 c-7 -3 -13 -9 -13 -15 0 -6 7 -8 15 -4 8 3 15 1 15 -5 0
-6 5 -7 10 -4 6 3 10 -1 10 -9 0 -17 15 -21 25 -7 7 12 -46 49 -62 44z"/>
<path d="M5661 631 c-10 -6 -10 -10 -1 -16 7 -4 19 0 28 9 14 13 14 16 2 16
-8 0 -21 -4 -29 -9z"/>
<path d="M5730 625 c0 -8 9 -15 20 -15 24 0 27 15 4 24 -22 9 -24 8 -24 -9z"/>
<path d="M6260 610 c0 -11 4 -20 9 -20 11 0 22 26 14 34 -12 12 -23 5 -23 -14z"/>
<path d="M4535 610 c-24 -10 -21 -12 28 -15 30 -2 35 0 26 11 -13 16 -25 16
-54 4z"/>
<path d="M4920 611 l-45 -6 33 -8 c23 -4 42 -2 60 8 29 15 24 16 -48 6z"/>
<path d="M5672 598 c-7 -7 -12 -18 -12 -25 0 -7 -11 -13 -24 -13 -14 0 -28 -4
-31 -10 -3 -5 -2 -10 4 -10 5 0 16 -3 24 -6 16 -6 67 42 67 63 0 16 -12 17
-28 1z"/>
<path d="M5730 585 c0 -8 4 -15 9 -15 5 0 11 7 15 15 3 9 0 15 -9 15 -8 0 -15
-7 -15 -15z"/>
<path d="M5406 575 c-3 -8 -1 -15 3 -15 5 0 11 7 15 15 3 8 1 15 -3 15 -5 0
-11 -7 -15 -15z"/>
<path d="M6060 564 c0 -11 -6 -14 -21 -9 -15 5 -19 4 -15 -4 9 -14 46 -15 46
-1 0 6 7 10 16 10 8 0 12 5 9 10 -10 16 -35 12 -35 -6z"/>
<path d="M5343 563 c-18 -7 -16 -23 2 -23 8 0 15 7 15 15 0 8 -1 15 -2 14 -2
0 -9 -3 -15 -6z"/>
<path d="M6160 561 c0 -5 5 -13 10 -16 6 -3 10 -2 10 4 0 5 -4 13 -10 16 -5 3
-10 2 -10 -4z"/>
<path d="M6320 559 c0 -5 5 -7 10 -4 6 3 10 8 10 11 0 2 -4 4 -10 4 -5 0 -10
-5 -10 -11z"/>
<path d="M5897 554 c-8 -8 1 -24 13 -24 4 0 10 7 14 15 5 15 -14 21 -27 9z"/>
<path d="M5770 542 c0 -10 41 -24 49 -17 6 7 0 11 -26 19 -13 4 -23 3 -23 -2z"/>
<path d="M530 523 c0 -4 12 -16 28 -25 59 -37 67 -43 74 -53 5 -6 8 -6 8 2 0
7 -19 25 -42 41 -60 40 -68 44 -68 35z"/>
<path d="M5285 520 c3 -5 10 -10 16 -10 5 0 9 5 9 10 0 6 -7 10 -16 10 -8 0
-12 -4 -9 -10z"/>
<path d="M5390 521 c0 -6 4 -13 10 -16 6 -3 7 1 4 9 -7 18 -14 21 -14 7z"/>
<path d="M5820 505 c-7 -8 -19 -15 -26 -15 -8 0 -13 -6 -11 -12 1 -9 -9 -12
-31 -10 -31 3 -92 -16 -92 -29 0 -10 38 -18 45 -10 4 3 30 11 58 16 32 6 51
15 50 23 -2 6 4 12 12 12 8 0 14 -6 13 -12 -2 -7 8 -14 21 -16 14 -2 21 0 17
7 -4 5 2 14 11 20 16 9 16 10 2 11 -9 0 -22 7 -29 15 -7 8 -16 15 -20 15 -4 0
-13 -7 -20 -15z"/>
<path d="M745 500 c3 -5 11 -10 16 -10 6 0 7 5 4 10 -3 6 -11 10 -16 10 -6 0
-7 -4 -4 -10z"/>
<path d="M5156 491 c-4 -7 -5 -15 -2 -18 9 -9 19 4 14 18 -4 11 -6 11 -12 0z"/>
<path d="M515 460 c7 -26 35 -62 35 -45 0 6 -9 24 -21 40 -19 28 -20 28 -14 5z"/>
<path d="M5568 473 c7 -3 16 -2 19 1 4 3 -2 6 -13 5 -11 0 -14 -3 -6 -6z"/>
<path d="M5919 463 c-13 -17 -13 -17 6 -3 11 8 22 16 24 17 2 2 0 3 -6 3 -6 0
-17 -8 -24 -17z"/>
<path d="M6008 473 c7 -3 16 -2 19 1 4 3 -2 6 -13 5 -11 0 -14 -3 -6 -6z"/>
<path d="M5968 453 c7 -3 16 -2 19 1 4 3 -2 6 -13 5 -11 0 -14 -3 -6 -6z"/>
<path d="M5600 430 c0 -6 7 -10 15 -10 8 0 15 2 15 4 0 2 -7 6 -15 10 -8 3
-15 1 -15 -4z"/>
<path d="M370 420 c0 -5 5 -10 10 -10 6 0 10 5 10 10 0 6 -4 10 -10 10 -5 0
-10 -4 -10 -10z"/>
<path d="M5448 423 c7 -3 16 -2 19 1 4 3 -2 6 -13 5 -11 0 -14 -3 -6 -6z"/>
<path d="M5805 420 c-13 -20 7 -30 48 -24 46 7 73 23 36 21 -13 -1 -36 2 -51
6 -15 4 -29 3 -33 -3z"/>
<path d="M0 390 c0 -19 5 -30 14 -30 7 0 16 -11 18 -25 6 -29 -18 -36 -25 -7
-3 9 -4 -18 -2 -62 2 -43 6 -81 9 -84 3 -3 6 4 6 16 0 17 6 22 28 22 32 0 71
24 59 36 -4 5 -24 7 -43 5 -36 -3 -45 12 -17 28 14 7 15 12 5 24 -9 11 -10 22
-2 43 10 24 8 30 -12 46 -32 24 -38 23 -38 -12z"/>
<path d="M860 405 c0 -8 4 -15 10 -15 5 0 7 7 4 15 -4 8 -8 15 -10 15 -2 0 -4
-7 -4 -15z"/>
<path d="M5138 403 c6 -2 18 -2 25 0 6 3 1 5 -13 5 -14 0 -19 -2 -12 -5z"/>
<path d="M1338 393 c7 -3 16 -2 19 1 4 3 -2 6 -13 5 -11 0 -14 -3 -6 -6z"/>
<path d="M320 380 c0 -8 5 -22 10 -30 9 -13 10 -13 10 0 0 8 -5 22 -10 30 -9
13 -10 13 -10 0z"/>
<path d="M1258 383 c12 -2 32 -2 45 0 12 2 2 4 -23 4 -25 0 -35 -2 -22 -4z"/>
<path d="M1025 369 c-33 -4 -64 -4 -69 -1 -5 3 -6 0 -2 -6 5 -8 -1 -12 -14
-12 -12 0 -19 4 -15 9 3 6 -7 8 -22 6 -16 -2 -45 -4 -65 -4 -34 -1 -38 -4 -38
-27 0 -22 2 -25 15 -14 8 7 15 9 15 5 0 -4 6 -3 13 4 10 8 17 7 27 -2 10 -10
12 -9 8 3 -4 12 6 15 56 16 33 0 84 3 111 6 28 4 67 7 88 7 20 1 37 4 37 9 0
9 -65 9 -145 1z"/>
<path d="M430 349 c7 -12 10 -34 6 -49 -5 -28 -5 -28 37 -22 23 3 45 9 48 15
4 5 9 5 13 -2 5 -7 13 -7 29 2 12 6 24 13 26 14 1 1 0 6 -4 12 -4 7 -12 8 -23
2 -11 -6 -24 -6 -35 0 -11 7 -17 6 -17 -1 0 -5 -14 -10 -31 -10 -24 0 -29 3
-25 18 4 11 -2 22 -15 30 -19 12 -19 11 -9 -9z"/>
<path d="M360 340 c0 -5 5 -10 11 -10 5 0 7 5 4 10 -3 6 -8 10 -11 10 -2 0 -4
-4 -4 -10z"/>
<path d="M685 336 c-13 -9 -28 -11 -47 -5 -24 6 -28 5 -28 -12 0 -18 20 -26
33 -13 4 4 34 8 67 8 33 1 65 7 72 14 7 7 10 12 8 13 -38 8 -91 6 -105 -5z"/>
<path d="M246 299 c-8 -49 -6 -52 28 -43 31 7 34 24 6 31 -12 3 -20 14 -20 27
0 17 2 19 11 6 9 -12 10 -12 7 -1 -9 31 -26 20 -32 -20z"/>
<path d="M325 286 c-4 -20 -6 -39 -4 -40 7 -7 89 36 89 45 0 8 -32 14 -54 10
-5 -1 -13 3 -17 10 -5 8 -10 -1 -14 -25z"/>
<path d="M800 285 c0 -8 4 -15 10 -15 5 0 7 7 4 15 -4 8 -8 15 -10 15 -2 0 -4
-7 -4 -15z"/>
<path d="M1135 283 c-11 -3 -24 -11 -28 -19 -4 -8 -17 -14 -27 -14 -10 0 -22
-5 -25 -10 -4 -6 -11 -8 -16 -5 -5 4 -9 2 -9 -4 0 -15 34 -31 66 -31 15 0 24
-3 20 -7 -3 -4 -41 -7 -84 -8 -42 -1 -108 -8 -147 -15 -38 -7 -86 -13 -105
-12 -19 1 -48 -4 -64 -10 -26 -10 -27 -12 -10 -18 10 -4 32 -3 48 1 21 6 32 4
44 -8 11 -10 17 -12 20 -4 5 16 22 14 22 -3 0 -21 48 -33 105 -26 32 5 53 3
58 -4 5 -8 10 -7 16 3 6 9 21 11 50 7 26 -3 41 -2 41 6 0 7 4 7 14 -1 10 -9
26 -9 53 -3 65 16 92 17 288 12 44 -2 100 -2 125 -1 44 1 46 2 45 30 0 16 -3
27 -7 24 -5 -2 -8 -11 -8 -19 0 -17 -28 -18 -67 -3 -19 7 -24 12 -14 18 9 6 6
10 -10 14 -27 7 -52 -10 -45 -30 3 -7 -1 -13 -9 -13 -8 0 -12 6 -9 13 3 8 -6
18 -21 25 -14 7 -23 17 -20 22 4 6 13 7 22 2 9 -5 39 -4 73 3 50 10 59 10 69
-4 10 -14 11 -14 8 4 -2 18 -9 20 -76 17 -41 -1 -79 2 -85 7 -15 13 -200 2
-224 -13 -19 -12 -38 5 -20 18 8 6 20 20 26 31 6 11 12 14 12 8 0 -7 10 -13
22 -13 l22 0 -23 16 c-25 18 -82 26 -116 17z m105 -93 c0 -5 -2 -10 -4 -10 -3
0 -8 5 -11 10 -3 6 -1 10 4 10 6 0 11 -4 11 -10z m-15 -30 c3 -5 -1 -10 -9
-10 -9 0 -16 5 -16 10 0 6 4 10 9 10 6 0 13 -4 16 -10z m92 4 c-3 -3 -12 -4
-19 -1 -8 3 -5 6 6 6 11 1 17 -2 13 -5z m56 -9 c9 -22 -6 -25 -27 -4 -19 19
-19 19 1 19 12 0 23 -7 26 -15z m37 -15 c0 -5 -2 -10 -4 -10 -3 0 -8 5 -11 10
-3 6 -1 10 4 10 6 0 11 -4 11 -10z"/>
<path d="M721 271 c-7 -5 -9 -11 -4 -14 5 -3 15 -2 22 2 7 5 9 11 4 14 -5 3
-15 2 -22 -2z"/>
<path d="M536 254 c-6 -15 12 -17 54 -5 29 8 17 19 -22 19 -15 0 -29 -7 -32
-14z"/>
<path d="M640 259 c0 -5 5 -7 10 -4 6 3 10 8 10 11 0 2 -4 4 -10 4 -5 0 -10
-5 -10 -11z"/>
<path d="M685 260 c3 -5 8 -10 11 -10 2 0 4 5 4 10 0 6 -5 10 -11 10 -5 0 -7
-4 -4 -10z"/>
<path d="M430 247 c-22 -9 -23 -11 -6 -14 10 -3 23 0 29 6 16 16 5 20 -23 8z"/>
<path d="M482 251 c-11 -7 -11 -9 1 -14 9 -3 18 1 21 9 6 16 -2 18 -22 5z"/>
<path d="M970 251 c0 -5 -8 -7 -18 -5 -9 3 -28 1 -42 -5 -21 -8 -15 -10 36
-10 48 -1 61 2 61 14 0 8 -9 15 -19 15 -10 0 -18 -4 -18 -9z"/>
<path d="M4620 240 c-23 -7 -23 -8 -3 -9 12 -1 25 4 28 9 3 6 5 10 3 9 -2 -1
-14 -5 -28 -9z"/>
<path d="M4790 239 c0 -5 5 -7 10 -4 6 3 10 8 10 11 0 2 -4 4 -10 4 -5 0 -10
-5 -10 -11z"/>
<path d="M340 223 c0 -11 3 -14 8 -7 4 6 14 14 22 17 10 4 8 6 -7 6 -16 1 -23
-5 -23 -16z"/>
<path d="M795 233 c-33 -8 -42 -23 -13 -23 47 0 91 12 76 21 -14 9 -31 10 -63
2z"/>
<path d="M302 200 c-14 -22 -21 -27 -30 -18 -8 8 -9 5 -5 -11 7 -27 17 -27 45
1 17 17 20 18 15 4 -5 -13 -3 -17 7 -13 7 3 19 0 25 -6 8 -8 14 -8 23 1 15 15
48 16 48 0 0 -7 7 -5 18 5 9 8 28 15 42 15 83 0 121 5 137 19 16 13 15 14 -21
9 -21 -3 -47 -1 -56 4 -13 7 -21 5 -30 -5 -8 -10 -21 -13 -38 -8 -18 4 -29 1
-38 -11 -8 -11 -14 -13 -19 -6 -3 5 -10 8 -15 5 -5 -3 -11 -1 -15 5 -3 5 -11
10 -16 10 -6 0 -8 -4 -4 -9 3 -5 1 -12 -5 -16 -6 -3 -13 1 -16 9 -3 9 -13 16
-21 16 -9 0 -13 6 -9 15 9 25 -3 17 -22 -15z"/>
<path d="M672 218 c-21 -21 -13 -27 19 -16 23 8 27 13 17 19 -17 12 -22 11
-36 -3z"/>
<path d="M1626 222 c-3 -6 1 -13 10 -16 23 -9 28 -2 10 13 -8 7 -17 8 -20 3z"/>
<path d="M155 210 c-3 -5 -1 -10 4 -10 6 0 11 5 11 10 0 6 -2 10 -4 10 -3 0
-8 -4 -11 -10z"/>
<path d="M196 198 c-9 -12 -16 -31 -16 -41 0 -14 5 -17 23 -11 30 9 33 12 19
26 -19 19 -14 36 11 41 l22 4 -22 2 c-12 0 -29 -9 -37 -21z"/>
<path d="M4685 209 c-10 -15 3 -25 16 -12 7 7 7 13 1 17 -6 3 -14 1 -17 -5z"/>
<path d="M4820 200 c0 -5 5 -10 10 -10 6 0 10 5 10 10 0 6 -4 10 -10 10 -5 0
-10 -4 -10 -10z"/>
<path d="M112 164 c-7 -8 -17 -12 -22 -9 -4 3 -10 -2 -14 -10 -4 -11 0 -14 17
-11 12 3 24 5 27 6 3 1 13 2 23 1 10 -2 17 5 17 14 0 9 -5 13 -11 9 -6 -3 -14
-2 -18 4 -4 6 -11 5 -19 -4z"/>
<path d="M4660 170 c0 -5 5 -10 10 -10 6 0 10 5 10 10 0 6 -4 10 -10 10 -5 0
-10 -4 -10 -10z"/>
<path d="M0 144 c0 -8 5 -12 10 -9 6 3 10 10 10 16 0 5 -4 9 -10 9 -5 0 -10
-7 -10 -16z"/>
<path d="M30 140 c-8 -5 -11 -12 -7 -16 4 -4 13 -2 19 4 15 15 7 24 -12 12z"/>
<path d="M648 133 c7 -3 16 -2 19 1 4 3 -2 6 -13 5 -11 0 -14 -3 -6 -6z"/>
<path d="M1660 136 c0 -9 30 -14 35 -6 4 6 -3 10 -14 10 -12 0 -21 -2 -21 -4z"/>
<path d="M5908 133 c7 -3 16 -2 19 1 4 3 -2 6 -13 5 -11 0 -14 -3 -6 -6z"/>
<path d="M42 93 c-29 -43 -34 -53 -25 -53 4 0 18 18 31 40 26 46 23 53 -6 13z"/>
<path d="M5890 109 c0 -5 5 -7 10 -4 6 3 10 8 10 11 0 2 -4 4 -10 4 -5 0 -10
-5 -10 -11z"/>
<path d="M1675 90 c3 -5 8 -10 11 -10 2 0 4 5 4 10 0 6 -5 10 -11 10 -5 0 -7
-4 -4 -10z"/>
<path d="M210 79 c0 -5 11 -9 25 -9 14 0 25 2 25 4 0 2 -11 6 -25 8 -14 3 -25
1 -25 -3z"/>
<path d="M1402 79 c-9 -4 -93 -10 -187 -14 -93 -4 -197 -9 -230 -11 -33 -2
-105 -6 -160 -9 -55 -3 -115 -10 -134 -15 -23 -6 -39 -6 -47 1 -9 7 -19 6 -32
-2 -16 -10 -29 -10 -57 -2 -31 10 -41 9 -68 -8 l-32 -19 180 4 c197 4 250 8
370 25 106 15 151 20 270 26 55 3 145 8 200 11 55 3 104 9 108 13 9 9 -156 9
-181 0z"/>
<path d="M115 60 c-8 -13 5 -13 25 0 13 8 13 10 -2 10 -9 0 -20 -4 -23 -10z"/>
<path d="M56 51 c-4 -5 3 -7 14 -4 23 6 26 13 6 13 -8 0 -17 -4 -20 -9z"/>
<path d="M400 22 c-65 -5 -75 -22 -13 -22 29 0 55 5 58 11 9 14 7 14 -45 11z"/>
<path d="M1448 23 c7 -3 16 -2 19 1 4 3 -2 6 -13 5 -11 0 -14 -3 -6 -6z"/>
<path d="M1204 9 c-11 -5 9 -8 49 -8 37 -1 67 3 67 7 0 10 -91 11 -116 1z"/>
<path d="M263 3 c9 -2 25 -2 35 0 9 3 1 5 -18 5 -19 0 -27 -2 -17 -5z"/>
</g>
</svg>
